<svg width="433" height="293" viewBox="0 0 433 293" fill="none" xmlns="http://www.w3.org/2000/svg">
<path d="M97.9375 252.574C59.3374 211.724 55.098 63.8293 137.379 75.2966C180.691 81.3328 261.901 64.6148 316.605 45.9511C369.796 27.8034 337.546 166.171 277.163 223.228C216.779 280.285 136.538 293.424 97.9375 252.574Z" fill="#FFE3CB"/>
<path d="M87.7148 263.963C108.307 285.756 140.187 294.394 177.483 288.287C214.711 282.192 252.894 262.128 284.998 231.79C309.136 208.983 331.842 171.109 345.736 130.481C359.008 91.6696 361.664 58.2981 352.667 43.3884C347.639 35.0554 339.033 32.6801 327.78 36.5196L328.09 37.4281C339.017 33.7004 347.01 35.8724 351.845 43.8846C360.699 58.5576 358.01 91.6207 344.826 130.17C330.981 170.658 308.369 208.384 284.338 231.093C252.372 261.299 214.368 281.274 177.328 287.339C140.356 293.393 108.779 284.856 88.4123 263.303L87.7148 263.963Z" fill="#FFE3CB"/>
<path d="M307.232 185.03C312.277 176.729 316.865 168.158 320.975 159.356V81.0029H104.221C76.1605 97.5092 67.8321 143.451 72.6214 185.03H155.597C154.19 172.116 164.57 161.964 174.582 162.479C184.029 162.964 192.97 172.935 191.525 185.03L307.232 185.03Z" fill="#FCEEDE"/>
<path d="M87.7148 263.963C108.307 285.756 140.187 294.394 177.483 288.287C214.711 282.192 252.894 262.128 284.998 231.79C309.136 208.983 331.842 171.109 345.736 130.481C359.008 91.6696 361.664 58.2981 352.667 43.3884C347.639 35.0554 339.033 32.6801 327.78 36.5196L328.09 37.4281C339.017 33.7004 347.01 35.8724 351.845 43.8846C360.699 58.5576 358.01 91.6207 344.826 130.17C330.981 170.658 308.369 208.384 284.338 231.093C252.372 261.299 214.368 281.274 177.328 287.339C140.356 293.393 108.779 284.856 88.4123 263.303L87.7148 263.963Z" fill="#FFE3CB"/>
<path d="M383.883 268.343C383.066 263.529 382.595 258.662 382.474 253.781C382.333 248.894 382.526 244.004 383.051 239.144C383.597 234.28 384.599 229.478 386.044 224.801C386.802 222.476 387.694 220.196 388.716 217.974C389.784 215.778 391.006 213.66 392.371 211.635C389.819 215.784 387.83 220.255 386.457 224.93C385.786 227.264 385.18 229.618 384.709 232.002C384.25 234.389 383.883 236.79 383.609 239.207C383.066 244.043 382.831 248.907 382.905 253.772C382.927 256.206 383.021 258.638 383.187 261.069C383.341 263.499 383.548 265.928 383.883 268.343Z" fill="#50661A"/>
<path d="M383.883 231.821C383.883 231.821 358.234 235.052 347.071 224.045C338.787 215.877 346.666 201.819 358.019 204.359C365.619 206.059 374.994 212.815 383.883 231.821Z" fill="#5E7C24"/>
<path d="M383.883 231.821C380.283 230.725 376.739 229.442 373.25 228.021C369.763 226.596 366.345 225.013 362.994 223.27C361.328 222.387 359.693 221.446 358.09 220.448C356.477 219.464 354.921 218.389 353.432 217.227C351.934 216.073 350.532 214.798 349.241 213.415C347.957 212.025 346.916 210.428 346.162 208.692C346.993 210.378 348.102 211.911 349.442 213.228C350.759 214.558 352.181 215.781 353.694 216.883C356.723 219.094 359.92 221.063 363.257 222.773C366.561 224.552 369.977 226.118 373.417 227.624C375.139 228.376 376.873 229.098 378.621 229.791C380.361 230.5 382.113 231.185 383.883 231.821Z" fill="#50661A"/>
<path d="M356.07 218.851L356.095 215.067C356.088 213.809 356.095 212.553 356.024 211.302C355.984 210.053 355.873 208.807 355.691 207.57L355.517 206.654C355.455 206.349 355.348 206.059 355.268 205.758C355.176 205.461 355.063 205.172 354.93 204.891C354.778 204.618 354.61 204.353 354.426 204.1C355.32 205.032 355.909 206.213 356.116 207.488C356.367 208.738 356.524 210.004 356.585 211.278C356.61 212.548 356.611 213.817 356.525 215.081C356.449 216.346 356.297 217.604 356.07 218.851ZM343.999 218.851C345.506 218.588 346.993 218.372 348.447 218.037C349.167 217.875 349.873 217.652 350.556 217.373C351.257 217.126 351.843 216.632 352.205 215.984C352.112 216.37 351.934 216.731 351.684 217.039C351.433 217.347 351.116 217.595 350.757 217.764C350.07 218.135 349.336 218.411 348.575 218.585C347.075 218.927 345.528 219.017 343.999 218.851ZM348.636 225.423C350.646 225.166 352.636 224.766 354.59 224.226C355.549 223.959 356.467 223.565 357.322 223.054C358.196 222.561 358.847 221.75 359.139 220.79C359.091 221.317 358.925 221.826 358.654 222.28C358.383 222.734 358.013 223.122 357.572 223.415C356.717 224.024 355.763 224.48 354.753 224.764C352.768 225.34 350.697 225.563 348.636 225.423ZM362.978 222.948C363.405 221.694 363.801 220.438 364.156 219.173C364.503 217.907 364.846 216.64 365.072 215.35C365.64 212.788 365.759 210.146 365.423 207.543C365.822 208.817 366.024 210.145 366.023 211.48C366.003 212.815 365.869 214.146 365.624 215.458C365.354 216.761 365.001 218.045 364.566 219.303C364.136 220.559 363.605 221.778 362.978 222.948ZM359.139 230.37C359.957 230.155 360.748 229.887 361.523 229.6C362.293 229.318 363.036 228.965 363.742 228.546C364.439 228.135 365.07 227.622 365.617 227.025C366.138 226.387 366.535 225.658 366.788 224.874C366.739 225.741 366.454 226.578 365.963 227.295C365.439 227.994 364.783 228.583 364.031 229.028C363.29 229.466 362.491 229.799 361.658 230.016C360.838 230.246 359.991 230.365 359.139 230.37ZM372.136 213.317C372.696 214.372 373.102 215.502 373.342 216.672C373.585 217.849 373.68 219.052 373.624 220.253C373.556 221.458 373.302 222.645 372.872 223.772C372.444 224.89 371.829 225.928 371.053 226.84C371.639 225.825 372.112 224.749 372.463 223.63C372.816 222.526 373.018 221.379 373.063 220.221C373.137 219.061 373.089 217.897 372.918 216.747C372.753 215.584 372.492 214.437 372.136 213.317ZM370.477 231.821C371.41 231.354 372.326 230.953 373.205 230.482C374.1 230.031 374.928 229.459 375.666 228.782C375.209 229.746 374.433 230.522 373.469 230.978C372.545 231.474 371.524 231.762 370.477 231.821ZM378.597 221.972C379.106 223.244 379.404 224.591 379.478 225.959C379.525 226.649 379.492 227.341 379.379 228.023C379.291 228.716 379.021 229.373 378.597 229.929C378.815 229.299 378.932 228.639 378.943 227.974C378.972 227.313 378.963 226.651 378.917 225.991C378.848 224.662 378.688 223.336 378.597 221.972Z" fill="#50661A"/>
<path d="M382.951 231.692C382.951 231.692 362.966 215.292 363.28 199.619C363.513 187.988 379.138 184.041 385.101 194.029C389.093 200.716 390.636 212.168 382.951 231.692Z" fill="#C4CE6E"/>
<path d="M382.951 231.692C381.22 228.344 379.663 224.91 378.286 221.401C376.897 217.896 375.683 214.325 374.644 210.688C374.142 208.867 373.705 207.029 373.331 205.174C372.936 203.322 372.654 201.447 372.485 199.561C372.307 197.673 372.283 195.773 372.413 193.88C372.552 191.987 373.021 190.132 373.801 188.401C373.186 190.172 372.862 192.031 372.841 193.906C372.795 195.772 372.9 197.639 373.153 199.489C373.648 203.198 374.428 206.864 375.484 210.454C376.451 214.074 377.664 217.626 378.912 221.166C379.536 222.936 380.19 224.696 380.876 226.446C381.533 228.207 382.243 229.948 382.951 231.692Z" fill="#8B9D36"/>
<path d="M373.239 202.581C375.012 200.757 376.837 199.04 378.577 197.248C379.444 196.352 380.282 195.433 381.067 194.476C381.449 193.992 381.802 193.486 382.125 192.962C382.286 192.699 382.428 192.425 382.55 192.142C382.655 191.847 382.745 191.547 382.818 191.243C382.816 192.549 382.397 193.821 381.622 194.872C380.907 195.937 380.098 196.935 379.203 197.855C377.429 199.683 375.424 201.271 373.239 202.581ZM364.938 193.817C366.251 194.643 367.439 195.545 368.673 196.358C369.277 196.763 369.908 197.127 370.561 197.448C371.201 197.799 371.942 197.925 372.662 197.803C372.325 198.033 371.938 198.178 371.533 198.228C371.128 198.278 370.717 198.231 370.335 198.09C369.575 197.864 368.853 197.526 368.193 197.086C366.896 196.23 365.789 195.117 364.938 193.817ZM363.355 201.703C365.053 202.875 366.668 204.083 368.396 205.068C369.237 205.573 370.136 205.974 371.073 206.261C372.012 206.572 373.032 206.53 373.942 206.142C373.537 206.5 373.054 206.757 372.532 206.893C372.01 207.03 371.463 207.042 370.935 206.929C369.885 206.745 368.878 206.371 367.964 205.826C367.063 205.301 366.219 204.686 365.444 203.989C364.664 203.308 363.963 202.541 363.355 201.703ZM375.016 210.413C376.202 209.812 377.358 209.183 378.512 208.561C379.656 207.923 380.794 207.284 381.888 206.578C382.985 205.883 384.045 205.13 385.063 204.323C386.076 203.493 387.019 202.581 387.881 201.595C387.28 202.798 386.481 203.891 385.518 204.83C384.549 205.761 383.49 206.593 382.356 207.314C380.1 208.751 377.619 209.798 375.016 210.413ZM366.987 212.73C367.75 213.12 368.495 213.487 369.243 213.826C369.978 214.166 370.739 214.448 371.518 214.669C372.279 214.887 373.066 215.003 373.858 215.013C374.673 214.973 375.477 214.801 376.237 214.505C375.603 215.123 374.797 215.536 373.924 215.691C373.041 215.815 372.141 215.753 371.283 215.509C370.445 215.268 369.647 214.902 368.918 214.422C368.188 213.965 367.537 213.394 366.987 212.73ZM388.305 210.439C387.618 212.771 386.257 214.847 384.393 216.408C383.925 216.797 383.431 217.155 382.914 217.479C382.653 217.636 382.375 217.765 382.107 217.909C381.842 218.059 381.562 218.182 381.273 218.276C380.149 218.72 378.952 218.95 377.743 218.953C378.864 218.622 379.951 218.188 380.992 217.655C382.01 217.132 382.963 216.489 383.83 215.741C384.709 214.998 385.52 214.179 386.253 213.292C387 212.388 387.686 211.435 388.305 210.439ZM373.731 221.96C374.776 222.21 375.694 222.567 376.628 222.872C377.565 223.205 378.527 223.46 379.506 223.637C379.02 223.886 378.478 224.005 377.932 223.984C377.394 223.967 376.861 223.871 376.351 223.699C375.849 223.527 375.37 223.295 374.925 223.008C374.471 222.728 374.067 222.374 373.731 221.96ZM386.465 221.082C386.24 221.736 385.934 222.359 385.554 222.937C385.184 223.52 384.76 224.066 384.289 224.57C383.814 225.084 383.274 225.534 382.683 225.908C382.096 226.315 381.403 226.539 380.689 226.553C381.266 226.226 381.798 225.826 382.273 225.363C382.747 224.919 383.211 224.459 383.655 223.971C384.568 223.02 385.436 222.017 386.465 221.082Z" fill="#8B9D36"/>
<path d="M382.35 259.161C382.35 259.161 356.514 260.09 346.378 248.131C338.856 239.257 347.958 225.958 359.039 229.501C366.458 231.872 375.192 239.437 382.35 259.161Z" fill="#C4CE6E"/>
<path d="M382.351 259.161C378.837 257.796 375.397 256.251 372.043 254.532C368.683 252.823 365.409 250.939 362.223 248.91C360.642 247.877 359.098 246.788 357.59 245.645C356.068 244.517 354.616 243.299 353.242 241.997C351.858 240.699 350.583 239.29 349.428 237.785C348.279 236.274 347.404 234.572 346.843 232.759C347.554 234.493 348.541 236.102 349.766 237.521C350.967 238.951 352.281 240.282 353.695 241.501C356.521 243.954 359.531 246.186 362.698 248.179C365.819 250.253 369.079 252.114 372.356 253.942C373.996 254.856 375.651 255.742 377.323 256.601C378.981 257.486 380.665 258.321 382.351 259.161Z" fill="#8B9D36"/>
<path d="M355.805 243.76C355.927 241.22 356.159 238.725 356.277 236.23C356.335 234.984 356.355 233.741 356.311 232.504C356.276 231.889 356.206 231.276 356.101 230.669C356.048 230.365 355.973 230.066 355.878 229.773C355.762 229.482 355.63 229.198 355.484 228.922C356.347 229.902 356.874 231.133 356.988 232.434C357.157 233.705 357.211 234.99 357.149 236.271C357.028 238.815 356.577 241.333 355.805 243.76ZM343.782 242.683C345.313 242.433 346.8 242.324 348.263 242.116C348.984 242.02 349.698 241.876 350.4 241.684C351.113 241.524 351.751 241.128 352.211 240.56C352.11 240.956 351.916 241.321 351.645 241.626C351.375 241.931 351.036 242.168 350.656 242.316C349.936 242.649 349.171 242.873 348.386 242.98C346.847 243.196 345.28 243.095 343.782 242.683ZM347.814 249.643C349.862 249.398 351.872 249.235 353.82 248.83C354.784 248.652 355.723 248.358 356.617 247.953C357.526 247.565 358.263 246.858 358.689 245.966C358.622 246.501 358.43 247.014 358.128 247.462C357.827 247.91 357.425 248.281 356.954 248.545C356.046 249.102 355.044 249.488 353.997 249.684C352.975 249.887 351.935 249.984 350.893 249.975C349.857 249.98 348.825 249.869 347.814 249.643ZM362.32 248.457C362.811 247.221 363.262 245.984 363.715 244.755C364.151 243.52 364.582 242.287 364.935 241.034C365.297 239.787 365.593 238.521 365.823 237.242C366.033 235.95 366.136 234.642 366.13 233.332C366.475 234.632 366.6 235.98 366.499 237.321C366.389 238.661 366.146 239.985 365.773 241.276C365.032 243.846 363.865 246.274 362.32 248.457ZM357.834 255.507C358.664 255.294 359.465 255.077 360.25 254.836C361.027 254.605 361.783 254.312 362.513 253.962C363.229 253.622 363.895 253.188 364.496 252.671C365.08 252.102 365.569 251.442 365.943 250.716C365.877 251.6 365.546 252.443 364.994 253.136C364.414 253.813 363.698 254.362 362.894 254.747C362.105 255.122 361.265 255.375 360.401 255.498C359.551 255.638 358.685 255.641 357.834 255.507ZM372.301 239.682C373.329 241.885 373.682 244.343 373.317 246.746C373.224 247.348 373.09 247.944 372.918 248.528C372.825 248.818 372.703 249.099 372.597 249.384C372.497 249.672 372.369 249.949 372.214 250.212C371.665 251.288 370.92 252.253 370.015 253.055C370.637 252.065 371.165 251.02 371.593 249.932C372.01 248.866 372.299 247.753 372.454 246.619C372.622 245.48 372.687 244.329 372.65 243.179C372.612 242.007 372.495 240.839 372.301 239.682ZM368.998 257.964C369.946 257.461 370.871 257.121 371.774 256.731C372.696 256.36 373.587 255.915 374.437 255.4C374.237 255.908 373.91 256.357 373.486 256.702C373.072 257.045 372.609 257.326 372.113 257.535C371.623 257.738 371.11 257.88 370.586 257.96C370.061 258.051 369.524 258.052 368.998 257.964ZM377.964 248.879C378.228 249.519 378.411 250.189 378.508 250.874C378.616 251.555 378.66 252.245 378.641 252.934C378.625 253.634 378.518 254.328 378.322 255C378.151 255.693 377.78 256.321 377.254 256.804C377.469 256.177 377.604 255.525 377.654 254.863C377.715 254.216 377.758 253.564 377.769 252.905C377.824 251.587 377.81 250.261 377.964 248.879Z" fill="#8B9D36"/>
<path d="M383.876 233.557C383.876 233.557 409.661 235.427 420.227 223.847C428.067 215.253 419.457 201.631 408.254 204.766C400.754 206.866 391.75 214.107 383.876 233.557Z" fill="#5E7C24"/>
<path d="M383.876 233.556C385.611 232.828 387.324 232.052 389.025 231.251C390.731 230.464 392.425 229.651 394.106 228.812C397.462 227.127 400.791 225.382 403.996 223.432C407.238 221.547 410.327 219.412 413.235 217.045C414.687 215.864 416.043 214.568 417.287 213.169C418.556 211.784 419.583 210.194 420.324 208.467C419.662 210.241 418.707 211.89 417.498 213.347C416.282 214.795 414.95 216.142 413.515 217.375C412.088 218.613 410.592 219.769 409.033 220.836C407.486 221.917 405.903 222.943 404.285 223.914C401.038 225.834 397.708 227.596 394.294 229.2C390.885 230.803 387.414 232.272 383.876 233.556Z" fill="#50661A"/>
<path d="M410.966 219.135C410.674 217.902 410.455 216.653 410.312 215.395C410.159 214.136 410.093 212.869 410.051 211.6C410.045 210.325 410.135 209.051 410.319 207.79C410.459 206.507 410.985 205.296 411.828 204.318C411.658 204.58 411.504 204.853 411.367 205.135C411.249 205.422 411.151 205.717 411.075 206.018C411.011 206.323 410.919 206.618 410.873 206.926L410.748 207.85C410.632 209.094 410.587 210.344 410.613 211.594C410.608 212.847 410.681 214.101 410.741 215.357L410.966 219.135ZM423.02 218.497C421.501 218.744 419.952 218.735 418.436 218.473C417.667 218.34 416.919 218.103 416.214 217.769C415.846 217.619 415.517 217.388 415.25 217.094C414.984 216.8 414.787 216.449 414.674 216.068C415.07 216.696 415.681 217.158 416.393 217.368C417.091 217.611 417.807 217.795 418.535 217.92C420.004 218.177 421.501 218.315 423.02 218.497ZM418.737 225.305C416.685 225.553 414.606 225.44 412.594 224.97C411.569 224.74 410.593 224.334 409.707 223.771C409.251 223.503 408.861 223.135 408.567 222.696C408.272 222.257 408.079 221.757 408.003 221.233C408.346 222.177 409.039 222.952 409.938 223.398C410.818 223.863 411.756 224.208 412.728 224.424C414.707 224.86 416.715 225.154 418.737 225.305ZM404.284 223.591C403.596 222.456 403.001 221.267 402.505 220.035C402.005 218.802 401.584 217.538 401.246 216.251C400.931 214.954 400.728 213.632 400.637 212.3C400.566 210.967 400.697 209.631 401.028 208.337C400.83 210.954 401.088 213.586 401.791 216.115C402.085 217.391 402.494 218.638 402.908 219.884C403.33 221.128 403.788 222.364 404.284 223.591ZM408.51 230.8C407.659 230.84 406.807 230.766 405.976 230.58C405.132 230.406 404.317 230.117 403.554 229.719C402.779 229.314 402.093 228.76 401.532 228.089C401.005 227.4 400.676 226.579 400.581 225.716C400.875 226.485 401.31 227.193 401.864 227.802C402.441 228.37 403.099 228.848 403.817 229.222C404.544 229.603 405.304 229.916 406.088 230.157C406.877 230.403 407.682 230.629 408.51 230.8ZM394.63 214.458C394.334 215.595 394.133 216.754 394.03 217.924C393.92 219.081 393.933 220.246 394.069 221.401C394.175 222.555 394.437 223.69 394.848 224.773C395.258 225.872 395.787 226.922 396.426 227.904C395.603 227.034 394.934 226.031 394.448 224.936C393.958 223.834 393.642 222.662 393.511 221.462C393.391 220.266 393.422 219.06 393.603 217.871C393.78 216.69 394.126 215.541 394.63 214.458ZM397.264 232.848C396.215 232.844 395.18 232.611 394.232 232.164C393.245 231.759 392.429 231.025 391.922 230.087C392.695 230.725 393.552 231.252 394.469 231.655C395.372 232.079 396.308 232.43 397.264 232.848ZM388.635 223.442C388.616 224.808 388.527 226.141 388.528 227.472C388.517 228.133 388.543 228.795 388.606 229.453C388.653 230.118 388.804 230.77 389.055 231.387C388.603 230.855 388.298 230.213 388.174 229.525C388.025 228.851 387.956 228.161 387.966 227.47C387.968 226.1 388.194 224.739 388.635 223.442Z" fill="#50661A"/>
<path d="M382.896 258.867C382.896 258.867 408.68 260.738 419.246 249.157C427.087 240.563 418.476 226.941 407.273 230.077C399.773 232.176 390.769 239.418 382.896 258.867Z" fill="#8B9D36"/>
<path d="M382.896 258.867C384.61 258.09 386.324 257.317 388.013 256.492C389.713 255.692 391.4 254.867 393.073 254.016C396.416 252.309 399.741 250.568 402.935 248.61C406.174 246.734 409.263 244.613 412.176 242.264C413.634 241.098 414.996 239.816 416.248 238.431C417.523 237.057 418.569 235.486 419.343 233.778C418.716 235.57 417.779 237.238 416.576 238.707C415.367 240.169 414.041 241.53 412.611 242.776C411.19 244.028 409.694 245.192 408.133 246.264C406.585 247.35 405.002 248.382 403.383 249.358C400.126 251.269 396.786 253.032 393.365 254.618C389.95 256.213 386.456 257.632 382.896 258.867Z" fill="#5E7C24"/>
<path d="M409.985 244.446C409.302 241.992 408.943 239.459 408.915 236.912C408.9 235.63 409 234.348 409.216 233.084C409.378 231.788 409.949 230.577 410.847 229.629C410.691 229.9 410.549 230.179 410.423 230.465C410.316 230.754 410.231 231.051 410.166 231.352C410.039 231.955 409.947 232.565 409.89 233.179C409.801 234.414 409.775 235.656 409.788 236.903C409.815 239.401 409.955 241.903 409.985 244.446ZM422.039 243.808C420.527 244.165 418.958 244.209 417.428 243.937C416.647 243.801 415.89 243.55 415.184 243.19C414.809 243.028 414.479 242.78 414.22 242.465C413.96 242.15 413.78 241.778 413.693 241.379C414.132 241.964 414.755 242.383 415.462 242.569C416.156 242.785 416.865 242.956 417.582 243.078C419.036 243.339 420.518 243.503 422.039 243.808ZM417.756 250.616C416.738 250.805 415.702 250.879 414.667 250.835C413.626 250.807 412.59 250.671 411.576 250.432C410.537 250.198 409.549 249.775 408.662 249.185C408.201 248.904 407.813 248.519 407.528 248.06C407.243 247.601 407.07 247.082 407.023 246.545C407.415 247.452 408.126 248.185 409.021 248.607C409.899 249.043 410.826 249.372 411.784 249.585C413.715 250.061 415.718 250.296 417.756 250.616ZM403.303 248.902C401.839 246.664 400.761 244.195 400.114 241.6C399.789 240.296 399.594 238.963 399.533 237.621C399.481 236.277 399.655 234.934 400.047 233.648C399.993 234.957 400.048 236.267 400.212 237.567C400.394 238.853 400.644 240.129 400.961 241.388C401.268 242.653 401.653 243.901 402.044 245.152C402.452 246.396 402.857 247.649 403.303 248.902ZM407.529 256.111C406.674 256.213 405.808 256.178 404.964 256.007C404.105 255.853 403.274 255.57 402.5 255.167C401.71 254.753 401.015 254.178 400.46 253.48C399.934 252.767 399.634 251.913 399.6 251.028C399.947 251.766 400.411 252.444 400.975 253.034C401.556 253.572 402.206 254.03 402.909 254.396C403.626 254.773 404.371 255.092 405.138 255.352C405.914 255.622 406.707 255.868 407.529 256.111ZM393.649 239.769C393.412 240.917 393.253 242.081 393.172 243.251C393.093 244.398 393.117 245.551 393.243 246.695C393.356 247.835 393.604 248.957 393.983 250.038C394.37 251.14 394.86 252.204 395.445 253.215C394.57 252.381 393.86 251.39 393.351 250.294C393.206 250.026 393.088 249.745 392.999 249.453C392.903 249.165 392.791 248.879 392.71 248.586C392.558 247.996 392.447 247.396 392.375 246.791C392.098 244.376 392.541 241.933 393.649 239.769ZM396.283 258.159C395.754 258.228 395.217 258.207 394.696 258.097C394.175 257.998 393.668 257.837 393.185 257.616C392.697 257.389 392.245 257.092 391.843 256.734C391.433 256.373 391.122 255.913 390.941 255.398C391.772 255.944 392.645 256.421 393.554 256.825C394.442 257.248 395.353 257.621 396.283 258.159ZM387.654 248.753C387.757 250.14 387.695 251.464 387.702 252.783C387.688 253.442 387.708 254.095 387.745 254.744C387.771 255.407 387.882 256.064 388.075 256.698C387.567 256.196 387.218 255.556 387.073 254.857C386.902 254.178 386.82 253.48 386.83 252.781C386.835 252.091 386.905 251.403 387.037 250.726C387.16 250.045 387.367 249.383 387.654 248.753Z" fill="#5E7C24"/>
<path d="M391.512 213.027C391.512 213.027 384.363 188.183 393.515 175.455C400.307 166.011 415.412 171.627 414.655 183.235C414.147 191.007 408.919 201.312 391.512 213.027Z" fill="#8B9D36"/>
<path d="M391.512 213.027C391.986 209.288 392.653 205.576 393.51 201.906C394.356 198.232 395.392 194.6 396.591 191.018C397.211 189.234 397.894 187.472 398.639 185.733C399.365 183.984 400.196 182.28 401.127 180.632C402.052 178.975 403.11 177.397 404.292 175.913C405.481 174.432 406.92 173.172 408.544 172.188C407.033 173.298 405.711 174.645 404.629 176.176C403.533 177.687 402.559 179.284 401.718 180.951C400.021 184.286 398.583 187.747 397.415 191.302C396.158 194.832 395.14 198.445 394.159 202.067C393.668 203.879 393.209 205.7 392.78 207.53C392.322 209.353 391.919 211.189 391.512 213.027Z" fill="#5E7C24"/>
<path d="M400.035 183.544C402.53 183.049 405.007 182.67 407.457 182.182C408.68 181.937 409.89 181.656 411.08 181.313C411.669 181.131 412.246 180.915 412.81 180.666C413.092 180.541 413.364 180.396 413.626 180.233C413.879 180.05 414.123 179.854 414.356 179.644C413.613 180.719 412.547 181.528 411.312 181.954C410.119 182.425 408.886 182.788 407.628 183.037C405.13 183.536 402.577 183.706 400.035 183.544ZM398.173 171.618C398.786 173.043 399.252 174.46 399.807 175.829C400.075 176.505 400.387 177.163 400.743 177.798C401.071 178.451 401.609 178.974 402.271 179.283C401.863 179.281 401.462 179.181 401.101 178.992C400.739 178.804 400.427 178.532 400.192 178.199C399.695 177.581 399.292 176.893 398.998 176.157C398.417 174.716 398.136 173.171 398.173 171.618ZM392.395 177.213C393.128 179.142 393.772 181.052 394.636 182.844C395.042 183.737 395.555 184.577 396.163 185.346C396.76 186.135 397.624 186.679 398.593 186.876C398.057 186.94 397.513 186.878 397.006 186.694C396.498 186.51 396.041 186.21 395.671 185.817C394.911 185.07 394.294 184.191 393.85 183.223C393.407 182.28 393.061 181.294 392.818 180.281C392.562 179.278 392.42 178.248 392.395 177.213ZM397.053 191.002C398.371 191.18 399.681 191.318 400.983 191.461C402.287 191.585 403.587 191.704 404.889 191.744C406.187 191.794 407.487 191.775 408.783 191.689C410.088 191.58 411.382 191.364 412.651 191.041C411.473 191.691 410.195 192.138 408.869 192.364C407.543 192.581 406.199 192.665 404.856 192.616C402.183 192.518 399.546 191.973 397.053 191.002ZM389.128 188.354C389.535 189.108 389.94 189.833 390.364 190.536C390.776 191.233 391.242 191.897 391.759 192.521C392.261 193.133 392.844 193.675 393.49 194.132C394.184 194.562 394.943 194.876 395.737 195.064C394.864 195.213 393.966 195.096 393.16 194.728C392.362 194.329 391.657 193.767 391.089 193.08C390.535 192.405 390.086 191.651 389.758 190.842C389.417 190.052 389.204 189.212 389.128 188.354ZM407.981 198.564C406.093 200.095 403.793 201.032 401.373 201.259C400.766 201.314 400.156 201.328 399.548 201.302C399.244 201.283 398.941 201.232 398.639 201.198C398.336 201.171 398.036 201.113 397.744 201.026C396.566 200.755 395.45 200.264 394.453 199.581C395.564 199.945 396.706 200.204 397.864 200.356C399 200.503 400.15 200.515 401.288 200.391C402.433 200.278 403.566 200.063 404.673 199.749C405.801 199.429 406.906 199.033 407.981 198.564ZM389.444 199.781C390.162 200.579 390.715 201.394 391.311 202.176C391.894 202.981 392.541 203.738 393.247 204.438C392.705 204.367 392.191 204.158 391.754 203.831C391.321 203.511 390.936 203.13 390.613 202.699C390.298 202.273 390.036 201.81 389.831 201.321C389.616 200.833 389.485 200.312 389.444 199.781ZM400.427 206.283C399.87 206.694 399.264 207.034 398.623 207.294C397.988 207.564 397.33 207.773 396.656 207.921C395.973 208.075 395.273 208.138 394.574 208.111C393.86 208.113 393.161 207.905 392.566 207.511C393.226 207.568 393.892 207.541 394.546 207.43C395.188 207.333 395.831 207.217 396.473 207.068C397.765 206.802 399.049 206.469 400.427 206.283Z" fill="#5E7C24"/>
<path d="M365.58 261.738V266.405C365.575 266.834 365.742 267.247 366.042 267.553C366.342 267.86 366.752 268.034 367.181 268.038H399.265C399.694 268.034 400.104 267.86 400.404 267.553C400.704 267.247 400.871 266.834 400.866 266.405V262.104C400.87 261.678 400.707 261.268 400.41 260.962C400.114 260.657 399.709 260.48 399.283 260.471L367.199 260.105C366.985 260.105 366.773 260.147 366.576 260.229C366.378 260.311 366.199 260.432 366.048 260.583C365.898 260.735 365.779 260.916 365.698 261.114C365.618 261.312 365.578 261.524 365.58 261.738Z" fill="#D6694B"/>
<path d="M367.111 268.039L368.252 292.127H397.439L399.335 268.039H367.111Z" fill="#E19974"/>
<path d="M304.724 49.8187C318.24 49.8187 329.197 38.8618 329.197 25.3459C329.197 11.8299 318.24 0.873047 304.724 0.873047C291.208 0.873047 280.251 11.8299 280.251 25.3459C280.251 38.8618 291.208 49.8187 304.724 49.8187Z" fill="#748CE2"/>
<path d="M304.738 50.6943C301.242 50.6961 297.784 49.9747 294.58 48.5756C291.377 47.1765 288.497 45.1298 286.123 42.5642C283.748 39.9986 281.93 36.9696 280.782 33.6675C279.635 30.3654 279.183 26.8617 279.455 23.3765C279.726 19.8913 280.716 16.5 282.362 13.4157C284.007 10.3314 286.273 7.62086 289.017 5.4544C291.76 3.28794 294.922 1.71241 298.304 0.826822C301.686 -0.058764 305.214 -0.235255 308.667 0.308443C314.968 1.30126 320.663 4.63318 324.616 9.63945C328.569 14.6457 330.489 20.9582 329.993 27.3176C329.497 33.6769 326.621 39.6155 321.94 43.9485C317.259 48.2815 311.117 50.6903 304.738 50.6943ZM304.71 1.74407C298.607 1.74318 292.741 4.10504 288.341 8.33447C283.942 12.5639 281.35 18.3324 281.11 24.4306C280.87 30.5288 283.001 36.4831 287.055 41.0451C291.109 45.6071 296.771 48.4225 302.855 48.901C308.939 49.3795 314.973 47.484 319.69 43.6119C324.407 39.7397 327.442 34.1917 328.158 28.131C328.875 22.0703 327.217 15.9675 323.533 11.1023C319.848 6.23704 314.423 2.98711 308.395 2.0339C307.176 1.84126 305.944 1.74436 304.71 1.7441V1.74407Z" fill="#3B5A9E"/>
<path d="M318.589 27.9666C318.566 27.9665 318.543 27.9648 318.52 27.9614L302.931 25.5062C302.875 25.4973 302.82 25.4773 302.771 25.4474C302.723 25.4175 302.68 25.3783 302.646 25.3319C302.612 25.2856 302.588 25.233 302.575 25.1773C302.561 25.1216 302.559 25.0637 302.568 25.0071C302.577 24.9504 302.597 24.8961 302.627 24.8472C302.656 24.7982 302.696 24.7557 302.742 24.7219C302.788 24.6881 302.841 24.6638 302.897 24.6504C302.952 24.6369 303.01 24.6346 303.067 24.6435L318.656 27.0987C318.764 27.1157 318.863 27.1731 318.931 27.2593C318.999 27.3455 319.032 27.4542 319.024 27.5638C319.015 27.6733 318.966 27.7756 318.885 27.8503C318.804 27.925 318.698 27.9665 318.589 27.9666Z" fill="#3B5A9E"/>
<path d="M307.45 29.0427C307.358 29.0427 307.268 29.0133 307.193 28.9587C307.118 28.9042 307.063 28.8273 307.034 28.7392L301.47 11.2875C301.435 11.1772 301.445 11.0574 301.498 10.9544C301.551 10.8514 301.643 10.7738 301.753 10.7385C301.863 10.7032 301.983 10.7132 302.086 10.7663C302.189 10.8194 302.267 10.9112 302.302 11.0215L307.866 28.4733C307.901 28.5837 307.891 28.7035 307.838 28.8064C307.785 28.9094 307.693 28.987 307.583 29.0223C307.54 29.0357 307.495 29.0426 307.45 29.0427Z" fill="#3B5A9E"/>
<path d="M96.8735 90.2491H32.5843C32.1213 90.2491 31.6772 90.0652 31.3498 89.7378C31.0223 89.4103 30.8384 88.9663 30.8384 88.5032V18.9036C30.8384 18.4406 31.0223 17.9965 31.3498 17.6691C31.6772 17.3417 32.1213 17.1577 32.5843 17.1577H108.784C109.248 17.1577 109.692 17.3417 110.019 17.6691C110.346 17.9965 110.53 18.4406 110.53 18.9036V77.1089L96.8735 90.2491ZM108.784 90.2492C109.248 90.2492 109.692 90.0652 110.019 89.7378C110.346 89.4103 110.53 88.9663 110.53 88.5032V77.1089L96.8735 90.2492H108.784Z" fill="#FFBA55"/>
<path d="M44.4947 25.3463C44.3227 25.3463 44.1525 25.3125 43.9936 25.2467C43.8347 25.1809 43.6903 25.0844 43.5687 24.9628C43.4471 24.8412 43.3507 24.6969 43.2849 24.538C43.2191 24.3791 43.1852 24.2088 43.1853 24.0369V11.4662C43.1853 11.1189 43.3232 10.7858 43.5688 10.5403C43.8144 10.2947 44.1474 10.1567 44.4947 10.1567C44.842 10.1567 45.1751 10.2947 45.4206 10.5403C45.6662 10.7858 45.8042 11.1189 45.8042 11.4662V24.0369C45.8042 24.2088 45.7703 24.3791 45.7045 24.538C45.6387 24.6969 45.5423 24.8412 45.4207 24.9628C45.2991 25.0844 45.1547 25.1809 44.9959 25.2467C44.837 25.3125 44.6667 25.3463 44.4947 25.3463ZM35.765 25.3463C35.5931 25.3463 35.4228 25.3125 35.2639 25.2467C35.105 25.1809 34.9606 25.0844 34.839 24.9628C34.7174 24.8412 34.621 24.6969 34.5552 24.538C34.4894 24.3791 34.4555 24.2088 34.4556 24.0369V11.4662C34.4556 11.1189 34.5935 10.7858 34.8391 10.5403C35.0847 10.2947 35.4177 10.1567 35.765 10.1567C36.1123 10.1567 36.4454 10.2947 36.691 10.5403C36.9365 10.7858 37.0745 11.1189 37.0745 11.4662V24.0369C37.0745 24.2088 37.0406 24.3791 36.9749 24.538C36.9091 24.6969 36.8126 24.8412 36.691 24.9628C36.5694 25.0844 36.425 25.1809 36.2662 25.2467C36.1073 25.3125 35.937 25.3463 35.765 25.3463ZM53.2244 25.3463C53.0524 25.3463 52.8821 25.3125 52.7233 25.2467C52.5644 25.1809 52.42 25.0844 52.2984 24.9628C52.1768 24.8412 52.0804 24.6969 52.0146 24.538C51.9488 24.3791 51.9149 24.2088 51.915 24.0369V11.4662C51.915 11.1189 52.0529 10.7858 52.2985 10.5403C52.5441 10.2947 52.8771 10.1567 53.2244 10.1567C53.5717 10.1567 53.9048 10.2947 54.1503 10.5403C54.3959 10.7858 54.5339 11.1189 54.5339 11.4662V24.0369C54.5339 24.2088 54.5 24.3791 54.4342 24.538C54.3684 24.6969 54.272 24.8412 54.1504 24.9628C54.0288 25.0844 53.8844 25.1809 53.7255 25.2467C53.5667 25.3125 53.3964 25.3463 53.2244 25.3463ZM61.9541 25.3463C61.7821 25.3463 61.6118 25.3125 61.453 25.2467C61.2941 25.1809 61.1497 25.0844 61.0281 24.9628C60.9065 24.8412 60.8101 24.6969 60.7443 24.538C60.6785 24.3791 60.6446 24.2088 60.6446 24.0369V11.4662C60.6446 11.1189 60.7826 10.7858 61.0282 10.5403C61.2737 10.2947 61.6068 10.1567 61.9541 10.1567C62.3014 10.1567 62.6345 10.2947 62.88 10.5403C63.1256 10.7858 63.2635 11.1189 63.2635 11.4662V24.0369C63.2636 24.2088 63.2297 24.3791 63.1639 24.538C63.0981 24.6969 63.0017 24.8412 62.8801 24.9628C62.7585 25.0844 62.6141 25.1809 62.4552 25.2467C62.2964 25.3125 62.1261 25.3463 61.9541 25.3463ZM70.6838 25.3463C70.5118 25.3463 70.3415 25.3125 70.1826 25.2467C70.0238 25.1809 69.8794 25.0844 69.7578 24.9628C69.6362 24.8412 69.5398 24.6969 69.474 24.538C69.4082 24.3791 69.3743 24.2088 69.3743 24.0369V11.4662C69.3743 11.1189 69.5123 10.7858 69.7579 10.5403C70.0034 10.2947 70.3365 10.1567 70.6838 10.1567C71.0311 10.1567 71.3642 10.2947 71.6097 10.5403C71.8553 10.7858 71.9932 11.1189 71.9932 11.4662V24.0369C71.9933 24.2088 71.9594 24.3791 71.8936 24.538C71.8278 24.6969 71.7314 24.8412 71.6098 24.9628C71.4882 25.0844 71.3438 25.1809 71.1849 25.2467C71.026 25.3125 70.8558 25.3463 70.6838 25.3463ZM79.4135 25.3463C79.2415 25.3463 79.0712 25.3125 78.9123 25.2467C78.7535 25.1809 78.6091 25.0844 78.4875 24.9628C78.3659 24.8412 78.2694 24.6969 78.2037 24.538C78.1379 24.3791 78.104 24.2088 78.104 24.0369V11.4662C78.104 11.1189 78.242 10.7858 78.4876 10.5403C78.7331 10.2947 79.0662 10.1567 79.4135 10.1567C79.7608 10.1567 80.0938 10.2947 80.3394 10.5403C80.585 10.7858 80.7229 11.1189 80.7229 11.4662V24.0369C80.723 24.2088 80.6891 24.3791 80.6233 24.538C80.5575 24.6969 80.4611 24.8412 80.3395 24.9628C80.2179 25.0844 80.0735 25.1809 79.9146 25.2467C79.7557 25.3125 79.5854 25.3463 79.4135 25.3463ZM88.1432 25.3463C87.9712 25.3463 87.8009 25.3125 87.642 25.2467C87.4832 25.1809 87.3388 25.0844 87.2172 24.9628C87.0956 24.8412 86.9991 24.6969 86.9333 24.538C86.8675 24.3791 86.8337 24.2088 86.8337 24.0369V11.4662C86.8337 11.1189 86.9717 10.7858 87.2173 10.5403C87.4628 10.2947 87.7959 10.1567 88.1432 10.1567C88.4905 10.1567 88.8235 10.2947 89.0691 10.5403C89.3147 10.7858 89.4526 11.1189 89.4526 11.4662V24.0369C89.4527 24.2088 89.4188 24.3791 89.353 24.538C89.2872 24.6969 89.1908 24.8412 89.0692 24.9628C88.9476 25.0844 88.8032 25.1809 88.6443 25.2467C88.4854 25.3125 88.3151 25.3463 88.1432 25.3463ZM96.8729 25.3463C96.7009 25.3463 96.5306 25.3125 96.3717 25.2467C96.2128 25.1809 96.0685 25.0844 95.9469 24.9628C95.8253 24.8412 95.7288 24.6969 95.663 24.538C95.5972 24.3791 95.5634 24.2088 95.5634 24.0369V11.4662C95.5634 11.1189 95.7014 10.7858 95.9469 10.5403C96.1925 10.2947 96.5256 10.1567 96.8729 10.1567C97.2202 10.1567 97.5532 10.2947 97.7988 10.5403C98.0444 10.7858 98.1823 11.1189 98.1823 11.4662V24.0369C98.1823 24.2088 98.1485 24.3791 98.0827 24.538C98.0169 24.6969 97.9204 24.8412 97.7989 24.9628C97.6772 25.0844 97.5329 25.1809 97.374 25.2467C97.2151 25.3125 97.0448 25.3463 96.8729 25.3463ZM105.603 25.3463C105.431 25.3463 105.26 25.3125 105.101 25.2467C104.943 25.1809 104.798 25.0844 104.677 24.9628C104.555 24.8412 104.459 24.6969 104.393 24.538C104.327 24.3791 104.293 24.2088 104.293 24.0369V11.4662C104.293 11.1189 104.431 10.7858 104.677 10.5403C104.922 10.2947 105.255 10.1567 105.603 10.1567C105.95 10.1567 106.283 10.2947 106.528 10.5403C106.774 10.7858 106.912 11.1189 106.912 11.4662V24.0369C106.912 24.2088 106.878 24.3791 106.812 24.538C106.747 24.6969 106.65 24.8412 106.529 24.9628C106.407 25.0844 106.263 25.1809 106.104 25.2467C105.945 25.3125 105.775 25.3463 105.603 25.3463Z" fill="#E6952A"/>
<path d="M110.47 77.0464L96.813 77.1721L96.9343 90.312L110.47 77.0464Z" fill="#E6952A"/>
<path d="M78.1036 44.5334C81.2278 44.5334 83.7605 42.0008 83.7605 38.8766C83.7605 35.7524 81.2278 33.2197 78.1036 33.2197C74.9794 33.2197 72.4468 35.7524 72.4468 38.8766C72.4468 42.0008 74.9794 44.5334 78.1036 44.5334Z" fill="#E6952A"/>
<path d="M93.7994 44.5334C96.9236 44.5334 99.4563 42.0008 99.4563 38.8766C99.4563 35.7524 96.9236 33.2197 93.7994 33.2197C90.6752 33.2197 88.1426 35.7524 88.1426 38.8766C88.1426 42.0008 90.6752 44.5334 93.7994 44.5334Z" fill="#E6952A"/>
<path d="M45.4449 58.5012C48.5691 58.5012 51.1018 55.9685 51.1018 52.8443C51.1018 49.7202 48.5691 47.1875 45.4449 47.1875C42.3207 47.1875 39.7881 49.7202 39.7881 52.8443C39.7881 55.9685 42.3207 58.5012 45.4449 58.5012Z" fill="#E6952A"/>
<path d="M61.9542 58.5012C65.0784 58.5012 67.6111 55.9685 67.6111 52.8443C67.6111 49.7202 65.0784 47.1875 61.9542 47.1875C58.83 47.1875 56.2974 49.7202 56.2974 52.8443C56.2974 55.9685 58.83 58.5012 61.9542 58.5012Z" fill="#E6952A"/>
<path d="M78.1036 58.5012C81.2278 58.5012 83.7605 55.9685 83.7605 52.8443C83.7605 49.7202 81.2278 47.1875 78.1036 47.1875C74.9794 47.1875 72.4468 49.7202 72.4468 52.8443C72.4468 55.9685 74.9794 58.5012 78.1036 58.5012Z" fill="#E6952A"/>
<path d="M93.7994 58.5012C96.9236 58.5012 99.4563 55.9685 99.4563 52.8443C99.4563 49.7202 96.9236 47.1875 93.7994 47.1875C90.6752 47.1875 88.1426 49.7202 88.1426 52.8443C88.1426 55.9685 90.6752 58.5012 93.7994 58.5012Z" fill="#E6952A"/>
<path d="M45.4449 72.4694C48.5691 72.4694 51.1018 69.9368 51.1018 66.8126C51.1018 63.6884 48.5691 61.1558 45.4449 61.1558C42.3207 61.1558 39.7881 63.6884 39.7881 66.8126C39.7881 69.9368 42.3207 72.4694 45.4449 72.4694Z" fill="#E6952A"/>
<path d="M61.9542 72.4694C65.0784 72.4694 67.6111 69.9368 67.6111 66.8126C67.6111 63.6884 65.0784 61.1558 61.9542 61.1558C58.83 61.1558 56.2974 63.6884 56.2974 66.8126C56.2974 69.9368 58.83 72.4694 61.9542 72.4694Z" fill="#E6952A"/>
<path d="M78.1036 72.4694C81.2278 72.4694 83.7605 69.9368 83.7605 66.8126C83.7605 63.6884 81.2278 61.1558 78.1036 61.1558C74.9794 61.1558 72.4468 63.6884 72.4468 66.8126C72.4468 69.9368 74.9794 72.4694 78.1036 72.4694Z" fill="#E6952A"/>
<path d="M93.7994 72.4694C96.9236 72.4694 99.4563 69.9368 99.4563 66.8126C99.4563 63.6884 96.9236 61.1558 93.7994 61.1558C90.6752 61.1558 88.1426 63.6884 88.1426 66.8126C88.1426 69.9368 90.6752 72.4694 93.7994 72.4694Z" fill="#E6952A"/>
<path d="M45.4449 85.5632C48.5691 85.5632 51.1018 83.0305 51.1018 79.9063C51.1018 76.7822 48.5691 74.2495 45.4449 74.2495C42.3207 74.2495 39.7881 76.7822 39.7881 79.9063C39.7881 83.0305 42.3207 85.5632 45.4449 85.5632Z" fill="#E6952A"/>
<path d="M58.6665 61.2783C60.0927 62.8992 61.356 64.6564 62.438 66.5247C62.9774 67.452 63.5047 68.3865 63.9756 69.3546C64.4664 70.3212 64.8894 71.3207 65.2415 72.346C64.5095 71.5464 63.834 70.6969 63.2198 69.8036C62.5949 68.927 62.0263 68.017 61.47 67.0997C60.3469 65.2558 59.4079 63.306 58.6665 61.2783Z" fill="#AF2F2F"/>
<path d="M65.2415 61.2783C64.5001 63.306 63.561 65.2558 62.438 67.0997C61.8816 68.017 61.3131 68.927 60.6882 69.8036C60.074 70.6969 59.3985 71.5464 58.6665 72.346C59.0186 71.3207 59.4416 70.3212 59.9324 69.3546C60.4033 68.3865 60.9306 67.452 61.47 66.5247C62.552 64.6564 63.8153 62.8992 65.2415 61.2783Z" fill="#AF2F2F"/>
<path d="M431.982 293H0.872969C0.641443 293 0.4194 292.908 0.255686 292.744C0.0919726 292.58 0 292.358 0 292.127C0 291.895 0.0919726 291.673 0.255686 291.51C0.4194 291.346 0.641443 291.254 0.872969 291.254H431.982C432.214 291.254 432.436 291.346 432.599 291.51C432.763 291.673 432.855 291.895 432.855 292.127C432.855 292.358 432.763 292.58 432.599 292.744C432.436 292.908 432.214 293 431.982 293Z" fill="#935B50"/>
<path d="M59.5029 90.2494V81.0029H96.8128L96.9341 90.3123L59.5029 90.2494Z" fill="#FCD095"/>
<path d="M96.9343 90.3123L96.813 81.0029H109.104L96.9343 90.3123Z" fill="#EFA54D"/>
<path d="M96.9336 90.3123H110.53V81.0029H106.916L96.9336 90.3123Z" fill="#FCD095"/>
<path d="M190.651 226.415H243.259V197.043H190.747L190.651 226.415Z" fill="#935B50"/>
<path d="M185.812 193.92H248.605C252.101 193.92 253.189 191.086 253.189 187.59V137.578C253.189 134.082 252.101 131.248 248.605 131.248H185.812C182.316 131.248 181.228 134.082 181.228 137.578V187.59C181.228 191.086 182.316 193.92 185.812 193.92Z" fill="#EF8870"/>
<path d="M176.331 226.415H258.087C258.864 226.415 259.493 225.785 259.493 225.009V219.128C259.493 218.352 258.864 217.722 258.087 217.722H176.331C175.554 217.722 174.924 218.352 174.924 219.128V225.009C174.924 225.785 175.554 226.415 176.331 226.415Z" fill="#D6694B"/>
<path d="M182.154 231.9H252.517C253.293 231.9 253.923 231.27 253.923 230.494V227.821C253.923 227.044 253.293 226.414 252.517 226.414H182.154C181.378 226.414 180.748 227.044 180.748 227.821V230.494C180.748 231.27 181.378 231.9 182.154 231.9Z" fill="#935B50"/>
<path d="M213.412 260.402H221.514V231.901H213.412V260.402Z" fill="#D6694B"/>
<path d="M213.411 264.746L161.458 283.049V276.466L213.411 260.401H221.514L273.508 276.466V283.049L221.514 264.746H213.411Z" fill="#935B50"/>
<path d="M212.918 266.985H222.006C222.782 266.985 223.412 266.356 223.412 265.579V259.783C223.412 259.007 222.782 258.377 222.006 258.377H212.918C212.141 258.377 211.512 259.007 211.512 259.783V265.579C211.512 266.356 212.141 266.985 212.918 266.985Z" fill="#E19974"/>
<path d="M274.656 289.999H278.862C279.833 289.999 280.62 289.212 280.62 288.241V278.085C280.62 277.114 279.833 276.327 278.862 276.327H274.656C273.685 276.327 272.898 277.114 272.898 278.085V288.241C272.898 289.212 273.685 289.999 274.656 289.999Z" fill="#D6694B"/>
<path d="M160.309 276.326H156.103C155.132 276.326 154.345 277.113 154.345 278.084V288.24C154.345 289.211 155.132 289.999 156.103 289.999H160.309C161.28 289.999 162.067 289.211 162.067 288.24V278.084C162.067 277.113 161.28 276.326 160.309 276.326Z" fill="#D6694B"/>
<path d="M167.762 140.57C167.762 140.57 159.088 118.413 158.773 118.35C158.458 118.287 156.261 118.042 160.201 129.594C160.201 129.594 157.247 129.38 155.792 134.879C155.562 135.76 155.535 136.682 155.715 137.575C155.895 138.468 156.276 139.308 156.829 140.031C158.202 141.83 160.205 144.076 161.726 144.203L167.762 140.57Z" fill="#F9AD9B"/>
<path d="M284.942 265.074L288.004 273.876C294.749 279.682 302.932 283.565 311.694 285.118C311.694 285.118 316.059 287.122 316.059 290.285H273.033V273.876L271.706 265.456L284.942 265.074Z" fill="#F9977A"/>
<path d="M315.355 288.143H273.497C273.214 288.143 272.942 288.256 272.741 288.456C272.541 288.657 272.428 288.929 272.428 289.212V289.216C272.428 289.356 272.456 289.495 272.51 289.625C272.563 289.755 272.642 289.873 272.741 289.972C272.841 290.071 272.959 290.15 273.088 290.204C273.218 290.258 273.357 290.285 273.497 290.285L316.65 290.285C316.65 290.285 317.882 288.987 315.355 288.143Z" fill="#D6694B"/>
<path d="M302.933 288.679C302.933 288.679 302.527 286.472 304.724 283.416C304.242 282.91 303.648 282.524 302.99 282.289C302.331 282.053 301.627 281.974 300.933 282.059C300.43 282.905 300.02 283.803 299.711 284.737C299.18 286.226 298.809 288.014 299.448 289.214L302.933 288.679ZM293.063 277.548C293.063 277.548 288.875 283.596 291.053 288.737H286.958C286.958 288.737 285.296 280.221 289.705 275.481C289.705 275.481 292.448 275.553 293.063 277.548Z" fill="#D6694B"/>
<path d="M226 257.579L226.217 266.896C226.217 266.896 234.119 278.748 246.985 285.391C246.985 285.391 250.525 288.636 249.556 291.647L208.6 278.463L213.628 262.843L214.945 254.422L226 257.579Z" fill="#F9977A"/>
<path d="M249.543 289.393L209.698 276.566C209.565 276.523 209.424 276.507 209.284 276.518C209.144 276.53 209.008 276.568 208.883 276.632C208.758 276.697 208.647 276.785 208.556 276.892C208.465 276.999 208.396 277.123 208.353 277.256L208.352 277.26C208.309 277.393 208.292 277.534 208.304 277.674C208.315 277.814 208.354 277.95 208.418 278.075C208.482 278.2 208.57 278.311 208.677 278.402C208.784 278.493 208.908 278.562 209.042 278.605L250.118 291.828C250.118 291.828 251.689 290.97 249.543 289.393Z" fill="#D6694B"/>
<path d="M237.554 286.096C237.554 286.096 237.843 283.87 240.871 281.635C240.567 281.006 240.12 280.456 239.566 280.03C239.011 279.604 238.365 279.314 237.678 279.182C236.94 279.833 236.275 280.562 235.695 281.356C234.733 282.611 233.831 284.2 234.072 285.538L237.554 286.096ZM230.858 272.66C230.858 272.66 225.729 276.95 226.228 282.511L222.329 281.256C222.329 281.256 222.645 272.825 228.295 269.664C228.295 269.664 230.884 270.572 230.858 272.66Z" fill="#D6694B"/>
<path d="M222.532 141.838C222.714 143.755 223.002 145.661 223.396 147.547C223.605 148.577 223.85 149.651 224.146 150.742C225.177 154.592 228.276 166.202 237.721 175.779V166.481C239.723 169.972 242.157 173.195 244.967 176.075C243.823 176.049 242.689 176.032 241.553 176.014L237.905 175.962C237.983 176.04 238.062 176.119 238.14 176.189C239.791 177.832 241.572 179.338 243.465 180.693C247.795 183.801 256.534 188.899 262.802 188.733C264.445 188.759 266.048 188.22 267.341 187.206C270.318 184.709 270.562 179.41 269.515 175.918C268.188 171.492 264.539 169.127 260.61 166.586C259.645 165.949 258.639 165.375 257.599 164.867C254.203 163.243 252.902 163.74 250.842 161.593C249.681 160.379 248.764 158.808 247.498 148.769C247.315 147.355 247.132 145.783 246.94 144.011C246.049 135.866 246.233 135.168 245.421 132.069C244.521 128.63 243.256 124.02 239.555 119.699C238.411 118.364 235.539 115.003 232.501 113.632C231.398 113.065 230.13 112.907 228.922 113.187C227.955 113.483 227.112 114.087 226.521 114.907C226.187 115.338 225.895 115.799 225.648 116.286C225.587 116.408 225.526 116.53 225.465 116.661C225.43 116.74 225.395 116.81 225.36 116.888C225.137 117.384 224.938 117.891 224.766 118.407C224.138 120.417 223.679 122.475 223.396 124.562C223.178 126.037 223.003 127.486 222.846 128.813C222.671 130.271 222.47 132.06 222.366 134.155C222.361 134.19 222.361 134.225 222.366 134.26C222.235 136.787 222.291 139.319 222.532 141.838Z" fill="#595959"/>
<path d="M226.588 132.807C223.554 135.993 210.842 133.378 215.533 130.923C214.228 130.719 213.17 130.609 212.182 130.352C205.621 128.644 198.774 119.533 200.866 112.432C202.689 106.244 210.642 103.824 212.577 103.235C215.008 102.387 217.615 102.174 220.151 102.619C222.687 103.064 225.066 104.151 227.062 105.777C229.482 107.749 231.32 110.343 232.376 113.281C233.51 116.169 233.503 125.543 226.588 132.807Z" fill="#595959"/>
<path d="M209.05 135.648L206.504 137.569L209.497 148.177L225.099 147.465L229.486 136.353C229.486 136.353 220.521 135.524 218.894 130.171L209.05 135.648Z" fill="#F9AD9B"/>
<path d="M209.73 131.418C209.73 131.418 213.972 134.517 218.843 130.614C218.843 130.614 217.229 137.442 209.05 135.649C209.479 135.042 209.763 134.346 209.881 133.612C209.999 132.879 209.947 132.128 209.73 131.418Z" fill="#F9977A"/>
<path d="M205.405 116.31C206.998 108.482 212.626 103.019 217.976 104.107C222.105 104.948 224.859 109.447 225.169 115.055C225.356 114.932 225.568 114.851 225.789 114.819C226.011 114.787 226.237 114.804 226.451 114.869C227.613 115.301 227.858 117.527 226.998 119.841C226.272 121.796 224.991 123.183 223.91 123.309C221.653 129.446 216.827 133.396 212.207 132.456C206.857 131.367 203.812 124.138 205.405 116.31Z" fill="#F9AD9B"/>
<path d="M211.847 115.677C212.16 116.594 212.166 117.588 211.863 118.508C211.599 119.431 211.208 120.313 210.7 121.127C210.441 121.537 210.038 121.861 210.1 122.237C210.186 122.657 210.435 123.026 210.793 123.262C211.189 123.493 211.628 123.643 212.083 123.704C212.537 123.764 213 123.735 213.443 123.617C212.996 123.81 212.51 123.9 212.023 123.88C211.535 123.86 211.059 123.731 210.628 123.502C210.403 123.372 210.208 123.194 210.058 122.981C209.907 122.769 209.805 122.526 209.757 122.27C209.731 121.992 209.811 121.713 209.983 121.492L210.388 120.915C210.89 120.134 211.293 119.294 211.589 118.414C211.925 117.543 212.015 116.596 211.847 115.677Z" fill="#F9977A"/>
<path d="M220.204 117.621C220.267 117.606 220.325 117.575 220.372 117.531C220.42 117.487 220.456 117.432 220.476 117.371C220.496 117.309 220.5 117.244 220.487 117.18C220.475 117.117 220.446 117.058 220.404 117.008C220.31 116.897 218.052 114.289 214.988 114.827C214.89 114.845 214.802 114.901 214.744 114.983C214.687 115.065 214.664 115.166 214.682 115.265C214.699 115.364 214.755 115.451 214.837 115.509C214.919 115.566 215.02 115.589 215.119 115.572C217.761 115.107 219.808 117.474 219.829 117.498C219.874 117.551 219.933 117.59 219.999 117.612C220.065 117.634 220.136 117.637 220.204 117.621ZM210.283 114.828C210.362 114.809 210.433 114.766 210.485 114.704C210.537 114.642 210.568 114.565 210.574 114.485C210.579 114.404 210.558 114.323 210.514 114.255C210.47 114.187 210.406 114.135 210.33 114.106C208.855 113.594 207.254 113.569 205.763 114.034C205.669 114.068 205.592 114.138 205.548 114.228C205.505 114.318 205.5 114.422 205.533 114.516C205.567 114.61 205.636 114.688 205.726 114.731C205.816 114.774 205.92 114.78 206.014 114.747C207.337 114.344 208.754 114.367 210.063 114.814C210.133 114.84 210.21 114.845 210.283 114.828ZM219.406 119.273C218.668 118.681 217.815 118.249 216.901 118.003C216.455 117.901 215.992 117.892 215.543 117.978C215.079 118.077 214.634 118.249 214.223 118.486C214.565 118.121 214.994 117.849 215.471 117.696C215.96 117.54 216.482 117.519 216.982 117.634C217.473 117.75 217.937 117.959 218.349 118.249C218.759 118.526 219.116 118.872 219.406 119.273Z" fill="#595959"/>
<path d="M216 119.428C216.468 119.428 216.848 119.049 216.848 118.581C216.848 118.112 216.468 117.733 216 117.733C215.532 117.733 215.152 118.112 215.152 118.581C215.152 119.049 215.532 119.428 216 119.428Z" fill="#595959"/>
<path d="M207.937 118.421C208.405 118.421 208.784 118.041 208.784 117.573C208.784 117.105 208.405 116.726 207.937 116.726C207.468 116.726 207.089 117.105 207.089 117.573C207.089 118.041 207.468 118.421 207.937 118.421Z" fill="#595959"/>
<path d="M210.759 118.443C210.021 117.851 209.168 117.418 208.255 117.172C207.808 117.07 207.346 117.062 206.896 117.147C206.432 117.247 205.987 117.418 205.576 117.656C205.918 117.29 206.348 117.018 206.824 116.865C207.313 116.71 207.835 116.688 208.336 116.803C208.826 116.92 209.29 117.129 209.703 117.419C210.112 117.695 210.47 118.042 210.759 118.443Z" fill="#595959"/>
<path d="M226.587 117.577C226.421 117.301 226.219 117.048 225.988 116.824C225.902 116.729 225.785 116.667 225.657 116.651C225.53 116.634 225.401 116.663 225.293 116.733C225.045 116.906 224.831 117.123 224.659 117.372C224.456 117.623 224.29 117.907 224.072 118.171C224.143 117.838 224.258 117.517 224.414 117.216C224.565 116.886 224.805 116.606 225.106 116.405C225.195 116.348 225.293 116.31 225.397 116.292C225.5 116.274 225.606 116.276 225.708 116.299C225.903 116.349 226.074 116.463 226.195 116.623C226.411 116.899 226.546 117.229 226.587 117.577Z" fill="#DD765E"/>
<path d="M225.202 120.14C224.996 119.884 224.861 119.577 224.811 119.252C224.75 118.931 224.738 118.602 224.776 118.277C224.811 117.955 224.883 117.639 224.992 117.334L225.174 116.89C225.256 116.749 225.326 116.606 225.417 116.473C225.335 117.112 225.209 117.711 225.152 118.316C225.117 118.617 225.099 118.919 225.098 119.222C225.097 119.531 225.132 119.839 225.202 120.14Z" fill="#DD765E"/>
<path d="M225.632 123.916C226.561 123.916 227.315 123.163 227.315 122.234C227.315 121.305 226.561 120.552 225.632 120.552C224.703 120.552 223.95 121.305 223.95 122.234C223.95 123.163 224.703 123.916 225.632 123.916Z" fill="#FCD095"/>
<path d="M215.895 126.602C215.895 126.602 211.176 129.558 208.499 126.282L215.895 126.602Z" fill="#F44B47"/>
<path d="M213.784 105.388C214.961 105.671 215.612 106.573 216.913 108.377C219.427 111.861 220.917 116.653 222.657 117.503C222.851 117.61 223.073 117.656 223.293 117.632C223.974 117.532 224.248 116.651 225.005 115.41C225.577 114.473 225.825 114.312 226.159 113.787C226.748 112.754 227.086 111.597 227.145 110.409C227.205 109.221 226.984 108.037 226.5 106.95C225.575 105.139 223.997 103.747 222.085 103.054C218.121 101.357 214.289 102.84 213.318 103.216C207.48 105.475 204.987 111.255 205.193 111.425C205.436 111.625 209.864 104.448 213.784 105.388Z" fill="#595959"/>
<path d="M197.83 184.709C193.732 190.54 192.52 198.822 192.356 205.795C192.311 207.522 192.612 209.241 193.242 210.85C193.872 212.459 194.817 213.926 196.022 215.164C197.227 216.402 198.668 217.386 200.26 218.059C201.851 218.732 203.561 219.079 205.289 219.081H218.258L212.133 267.093H228.395L240.839 219.117H251.882L270.789 265.775H287.003C282.976 237.59 274.321 213.263 269.339 200.884C268.303 198.308 266.519 196.102 264.219 194.548C261.918 192.995 259.205 192.165 256.429 192.167H239.66L236.417 186.006L197.83 184.709Z" fill="#8B9D36"/>
<path d="M158.988 145.417L172.257 177.01C172.728 178.132 173.449 179.132 174.364 179.935C175.279 180.738 176.364 181.322 177.539 181.643C178.713 181.964 179.944 182.015 181.141 181.79C182.337 181.565 183.466 181.07 184.444 180.345L196.901 171.1L197.023 171.013L197.032 171.222L197.826 184.709L228.694 185.748L228.904 185.757L236.42 186.01L248.877 191.335C249.162 191.634 249.468 191.912 249.794 192.165C251.198 193.263 252.912 193.893 254.693 193.963C256.475 194.034 258.233 193.542 259.72 192.557C260.5 192.037 261.18 191.381 261.728 190.619C262.154 190.032 262.514 189.4 262.801 188.734C263.928 186.106 264.198 182.44 262.679 177.333C261.347 173.039 259.648 168.868 257.599 164.867C254.758 159.188 251.375 153.797 247.498 148.769C241.405 140.982 234.735 135.544 229.489 136.356C227.459 138.523 225.114 140.372 222.531 141.838C217.695 144.5 211.287 145.6 206.503 137.569C206.503 137.569 198.961 133.92 180.847 160.432L169.961 140.136C169.749 139.739 169.391 139.44 168.963 139.302C168.535 139.163 168.07 139.196 167.665 139.394L167.482 139.481L160.577 142.816L159.843 143.174C159.44 143.366 159.126 143.707 158.967 144.124C158.808 144.542 158.816 145.005 158.988 145.417ZM244.966 176.076C243.823 176.05 242.688 176.032 241.553 176.015L237.904 175.962C237.843 175.901 237.782 175.84 237.721 175.779V166.482C239.723 169.972 242.157 173.195 244.966 176.076Z" fill="#FCD095"/>
<path d="M240.839 219.117C242.158 213.974 242.606 208.646 242.166 203.354C241.941 200.697 241.22 198.105 240.041 195.714C238.828 193.3 236.821 191.377 234.357 190.269C231.868 189.279 229.179 188.898 226.513 189.157C223.867 189.237 221.223 189.394 218.584 189.601C215.947 189.828 213.314 190.116 210.7 190.539C208.077 190.917 205.502 191.571 203.018 192.492C205.516 191.622 208.099 191.018 210.724 190.689C213.335 190.285 215.966 190.015 218.601 189.806C221.237 189.617 223.878 189.478 226.52 189.416C227.834 189.338 229.153 189.374 230.46 189.523C231.76 189.688 233.032 190.029 234.239 190.538C236.653 191.608 238.625 193.476 239.824 195.829C241.004 198.188 241.733 200.748 241.97 203.376C242.237 206.004 242.253 208.651 242.019 211.282C241.818 213.919 241.424 216.538 240.839 219.117ZM251.882 219.117C251.658 218.152 251.355 217.207 250.974 216.293C250.611 215.367 250.13 214.493 249.544 213.69C249.946 214.597 250.332 215.493 250.696 216.408C251.088 217.309 251.441 218.227 251.882 219.117ZM218.259 219.081C218.527 218.076 218.744 217.058 218.909 216.03C219.08 215.004 219.197 213.969 219.261 212.931C218.992 213.936 218.775 214.954 218.611 215.982C218.441 217.008 218.323 218.043 218.259 219.081ZM268.936 206.816C268.04 206.96 267.125 206.945 266.234 206.774C265.353 206.611 264.526 206.231 263.829 205.668C263.136 205.1 262.574 204.391 262.18 203.586C261.981 203.181 261.804 202.765 261.648 202.341L261.266 201.028C261.337 201.478 261.42 201.93 261.507 202.383C261.638 202.826 261.793 203.261 261.971 203.687C262.352 204.544 262.923 205.302 263.642 205.904C264.389 206.464 265.259 206.839 266.179 206.997C267.099 207.156 268.044 207.094 268.936 206.816Z" fill="#5E7C24"/>
<path d="M236.118 208.507C235.222 208.65 234.308 208.636 233.416 208.464C232.535 208.302 231.708 207.922 231.011 207.359C230.319 206.791 229.756 206.081 229.362 205.277C229.164 204.871 228.986 204.456 228.83 204.032L228.448 202.718C228.519 203.169 228.602 203.621 228.689 204.074C228.82 204.517 228.975 204.952 229.153 205.378C229.534 206.235 230.105 206.993 230.824 207.595C231.571 208.155 232.441 208.53 233.361 208.688C234.282 208.847 235.227 208.785 236.118 208.507Z" fill="#5E7C24"/>
<path d="M195.803 159.457C195.556 160.411 195.405 161.387 195.351 162.37C195.316 163.357 195.354 164.345 195.467 165.325C195.706 167.289 196.181 169.216 196.88 171.066L196.89 171.092L196.908 171.11C197.599 171.793 198.401 172.353 199.28 172.766C200.152 173.185 201.098 173.427 202.063 173.479C203.029 173.531 203.996 173.392 204.907 173.069C205.359 172.911 205.797 172.719 206.219 172.494C206.637 172.265 207.027 171.988 207.43 171.738C207.014 171.968 206.612 172.223 206.186 172.429C205.759 172.63 205.316 172.798 204.863 172.931C203.967 173.219 203.024 173.328 202.086 173.251C200.208 173.083 198.451 172.253 197.13 170.908L197.158 170.952C196.459 169.128 195.97 167.23 195.699 165.296C195.399 163.358 195.434 161.383 195.803 159.457Z" fill="#FFBA55"/>
<path d="M268.385 266.213H289.705C289.821 266.213 289.932 266.167 290.014 266.085C290.096 266.003 290.142 265.892 290.142 265.776C290.142 265.661 290.096 265.55 290.014 265.468C289.932 265.386 289.821 265.34 289.705 265.34H268.385C268.269 265.34 268.158 265.386 268.076 265.468C267.994 265.55 267.948 265.661 267.948 265.776C267.948 265.892 267.994 266.003 268.076 266.085C268.158 266.167 268.269 266.213 268.385 266.213ZM209.625 267.53H230.946C231.062 267.53 231.173 267.484 231.254 267.403C231.336 267.321 231.382 267.21 231.382 267.094C231.382 266.978 231.336 266.867 231.254 266.785C231.173 266.703 231.062 266.657 230.946 266.657H209.625C209.51 266.657 209.399 266.703 209.317 266.785C209.235 266.867 209.189 266.978 209.189 267.094C209.189 267.21 209.235 267.321 209.317 267.403C209.399 267.484 209.51 267.53 209.625 267.53Z" fill="#5E7C24"/>
<path d="M224.766 172.743C225.605 172.972 226.47 173.091 227.34 173.096C227.478 173.098 227.616 173.091 227.754 173.085C227.755 173.182 227.753 173.281 227.755 173.377C227.617 173.385 227.478 173.396 227.34 173.397C226.444 173.381 225.555 173.236 224.701 172.966C224.278 172.828 223.863 172.668 223.458 172.485C223.062 172.284 222.676 172.063 222.295 171.842C223.093 172.209 223.919 172.511 224.766 172.743Z" fill="#FFBA55"/>
<path d="M228.895 187.012C228.895 187.012 218.384 192.174 217.271 191.029C216.159 189.884 220.128 186.916 220.128 186.916L217.792 184.512L207.157 184.145C207.014 184.141 206.873 184.106 206.744 184.045C206.615 183.983 206.499 183.895 206.405 183.787C206.311 183.679 206.24 183.553 206.197 183.416C206.154 183.279 206.139 183.135 206.154 182.993C206.173 182.81 206.24 182.635 206.348 182.487C206.456 182.338 206.601 182.221 206.769 182.146C209.178 181.078 220.851 175.779 227.788 179.593L228.895 187.012Z" fill="#F9AD9B"/>
<path d="M227.446 177.709C227.559 178.747 227.743 179.69 227.891 180.685L228.694 185.749L228.825 186.595C228.974 187.442 229.07 188.289 229.253 189.145L229.305 189.406C229.314 189.459 229.331 189.511 229.34 189.564C229.433 189.808 229.576 190.029 229.761 190.213C229.947 190.397 230.169 190.538 230.414 190.629C230.908 190.751 231.419 190.784 231.924 190.725L234.491 190.655L235.119 190.637L237.904 190.559L234.988 190.567H234.299L231.924 190.576C231.439 190.625 230.949 190.592 230.475 190.48C230.253 190.397 230.051 190.266 229.884 190.097C229.717 189.928 229.588 189.726 229.506 189.502C229.497 189.476 229.497 189.45 229.489 189.424C229.471 189.336 229.454 189.249 229.436 189.153C229.262 188.315 229.175 187.416 229.026 186.569L228.904 185.757L228.136 180.651C228.005 179.673 227.821 178.66 227.716 177.717C227.721 177.487 227.774 177.259 227.872 177.05C227.969 176.841 228.11 176.655 228.284 176.504C228.465 176.358 228.673 176.249 228.896 176.184C229.12 176.12 229.354 176.101 229.585 176.129L237.721 176.19H238.14L242.112 176.225L245.132 176.242L245.122 176.231C247.919 176.247 250.718 176.264 253.513 176.251C250.658 176.181 247.81 176.123 244.967 176.076C243.823 176.05 242.688 176.033 241.553 176.015L237.904 175.963L237.721 175.954L229.585 175.832C229.32 175.803 229.051 175.829 228.796 175.907C228.541 175.985 228.305 176.114 228.101 176.286C227.896 176.462 227.732 176.68 227.619 176.926C227.506 177.171 227.447 177.438 227.446 177.709ZM190.747 175.6C188.399 167.67 181.598 161.971 174.514 161.606C171.745 161.497 168.994 162.109 166.533 163.383L172.257 177.01C172.728 178.132 173.449 179.133 174.364 179.936C175.279 180.738 176.365 181.322 177.539 181.644C178.713 181.965 179.945 182.015 181.141 181.79C182.337 181.565 183.466 181.071 184.444 180.345L190.762 175.656C190.757 175.637 190.753 175.618 190.747 175.6Z" fill="#FFBA55"/>
<path d="M42.0676 189.826L338.408 189.826C339.023 189.826 339.521 189.328 339.521 188.714V185.992C339.521 185.378 339.023 184.88 338.408 184.88L42.0676 184.88C41.4534 184.88 40.9554 185.378 40.9554 185.992V188.714C40.9554 189.328 41.4534 189.826 42.0676 189.826Z" fill="#935B50"/>
<path d="M53.2341 292.126L326.801 292.126V189.825L53.2341 189.825V292.126Z" fill="#935B50"/>
<path d="M329.58 206.005L50.4552 206.005C49.8654 206.005 49.2998 205.771 48.8828 205.354C48.4657 204.937 48.2315 204.371 48.2315 203.782V189.827L331.803 189.827V203.782C331.803 204.371 331.569 204.937 331.152 205.354C330.735 205.771 330.169 206.005 329.58 206.005V206.005Z" fill="#C38F86"/>
<path d="M258.066 181.405H306.086C307.311 181.405 308.49 180.943 309.39 180.111C310.289 179.279 310.841 178.139 310.935 176.917L313.423 144.848C313.475 144.179 313.388 143.507 313.168 142.874C312.948 142.241 312.599 141.66 312.144 141.168C311.688 140.676 311.136 140.283 310.522 140.015C309.907 139.746 309.244 139.607 308.574 139.607H255.578C254.908 139.607 254.244 139.746 253.63 140.015C253.016 140.283 252.463 140.676 252.008 141.168C251.553 141.66 251.204 142.241 250.984 142.874C250.763 143.507 250.677 144.179 250.728 144.848L253.217 176.917C253.311 178.139 253.863 179.279 254.762 180.111C255.661 180.943 256.841 181.405 258.066 181.405Z" fill="#C2CCF2"/>
<path d="M282.076 162.431C284.998 162.431 287.368 161.57 287.368 160.506C287.368 159.443 284.998 158.582 282.076 158.582C279.153 158.582 276.784 159.443 276.784 160.506C276.784 161.57 279.153 162.431 282.076 162.431Z" fill="#748CE2"/>
<path d="M256.244 185.03H307.904C308.905 185.03 309.716 184.218 309.716 183.218C309.716 182.217 308.905 181.405 307.904 181.405H256.244C255.243 181.405 254.432 182.217 254.432 183.218C254.432 184.218 255.243 185.03 256.244 185.03Z" fill="#748CE2"/>
<path d="M321.411 185.467H191.033L191.091 184.978C191.431 182.176 191.193 179.334 190.393 176.627C189.593 173.92 188.248 171.405 186.439 169.238C184.993 167.431 183.193 165.939 181.151 164.852C179.108 163.765 176.865 163.105 174.559 162.915C169.983 162.673 165.083 164.817 161.477 168.635C159.438 170.802 157.895 173.387 156.954 176.21C156.013 179.033 155.698 182.026 156.03 184.984L156.083 185.467H59.0659V80.5674H321.411L321.411 185.467ZM192.01 184.594H320.538V81.4404H59.9389V184.594H155.115C154.846 181.586 155.217 178.555 156.204 175.701C157.192 172.847 158.772 170.235 160.842 168.036C164.677 163.974 169.685 161.782 174.604 162.043C177.03 162.24 179.39 162.93 181.539 164.07C183.689 165.21 185.583 166.777 187.106 168.675C188.939 170.87 190.317 173.408 191.159 176.141C192.001 178.875 192.29 181.748 192.01 184.594H192.01Z" fill="#748CE2"/>
<path d="M156.514 172.036C156.514 172.036 162.781 163.557 164.298 164.054C165.816 164.551 163.678 169.023 163.678 169.023L166.865 170.067L176.452 165.452C176.582 165.39 176.722 165.355 176.865 165.35C177.009 165.344 177.151 165.368 177.285 165.42C177.418 165.472 177.54 165.551 177.642 165.652C177.743 165.753 177.823 165.874 177.876 166.007C177.944 166.178 177.966 166.364 177.94 166.545C177.913 166.727 177.839 166.899 177.724 167.043C176.088 169.107 166.699 178.888 158.783 178.732L156.514 172.036ZM178.654 266.518L181.642 275.345C181.642 275.345 192.721 284.299 206.984 286.799C206.984 286.799 211.331 288.839 211.305 292.003L168.281 291.644L168.418 275.235L167.16 266.804L178.654 266.518Z" fill="#F9977A"/>
<path d="M210.619 289.855L168.762 289.505C168.622 289.504 168.483 289.531 168.352 289.583C168.222 289.636 168.104 289.714 168.004 289.812C167.903 289.911 167.824 290.028 167.769 290.157C167.714 290.286 167.685 290.425 167.684 290.566V290.569C167.682 290.853 167.792 291.126 167.991 291.328C168.19 291.53 168.461 291.645 168.744 291.647L211.895 292.008C211.895 292.008 213.138 290.719 210.619 289.855Z" fill="#D6694B"/>
<path d="M198.192 290.287C198.192 290.287 197.804 288.076 200.027 285.039C199.549 284.529 198.958 284.138 198.302 283.897C197.646 283.656 196.942 283.572 196.247 283.651C195.737 284.492 195.32 285.386 195.003 286.318C194.46 287.802 194.073 289.588 194.702 290.793L198.192 290.287ZM187.791 279.462C187.791 279.462 184.177 285.087 186.312 290.246L182.217 290.212C182.217 290.212 180.002 282.07 184.451 277.367C184.451 277.367 187.193 277.461 187.791 279.462Z" fill="#D6694B"/>
<path d="M187.63 237.869L190.731 246.657C190.731 246.657 201.923 255.469 216.216 257.787C216.216 257.787 220.589 259.772 220.603 262.935L177.578 263.124L177.506 246.715L176.141 238.301L187.63 237.869Z" fill="#F9977A"/>
<path d="M219.891 260.796L178.033 260.98C177.75 260.982 177.478 261.095 177.279 261.297C177.079 261.498 176.968 261.771 176.969 262.054V262.058C176.97 262.341 177.084 262.613 177.285 262.813C177.487 263.012 177.759 263.124 178.043 263.122L221.195 262.933C221.195 262.933 222.421 261.629 219.891 260.796Z" fill="#D6694B"/>
<path d="M207.471 261.387C207.471 261.387 207.055 259.181 209.239 256.116C208.754 255.613 208.159 255.229 207.499 254.996C206.84 254.764 206.136 254.688 205.442 254.776C204.942 255.624 204.537 256.523 204.232 257.459C203.707 258.95 203.344 260.741 203.988 261.938L207.471 261.387ZM196.933 250.695C196.933 250.695 193.391 256.366 195.592 261.497L191.496 261.515C191.496 261.515 189.178 253.402 193.566 248.644C193.566 248.644 196.309 248.703 196.933 250.695Z" fill="#D6694B"/>
<path d="M135.916 202.432L164.32 192.549C167.862 191.315 171.748 191.521 175.141 193.121C178.533 194.722 181.163 197.589 182.464 201.107C187.482 214.5 191.313 228.308 193.913 242.371C193.987 242.796 193.9 243.233 193.671 243.599C193.442 243.964 193.086 244.232 192.672 244.352L183.706 246.933L182.819 269.689C182.802 270.14 182.61 270.567 182.285 270.88C181.96 271.193 181.526 271.367 181.075 271.367H168.217C167.801 271.367 167.4 271.22 167.084 270.95C166.768 270.681 166.559 270.308 166.493 269.898L160.382 231.859L146.261 233.129C146.261 233.129 72.163 248.202 83.9044 193.938L115.638 195.527L119.342 198.962C121.529 200.99 124.228 202.385 127.148 202.996C130.068 203.608 133.099 203.413 135.916 202.432Z" fill="#6C7FD8"/>
<path d="M129.921 234.947C137.504 231.283 145.14 227.735 152.774 224.182L164.257 218.925C168.081 217.163 171.915 215.426 175.761 213.713L175.707 213.743C176.095 213.521 176.526 213.384 176.971 213.34C177.416 213.297 177.865 213.347 178.289 213.489C179.088 213.783 179.787 214.299 180.304 214.976C181.248 216.261 181.947 217.71 182.366 219.249C183.185 222.249 183.683 225.327 183.852 228.432C184.229 234.595 184.18 240.776 183.706 246.932C183.742 243.85 183.807 240.77 183.731 237.692C183.658 234.615 183.555 231.539 183.257 228.482C183.009 225.434 182.468 222.417 181.642 219.472C181.241 218.033 180.58 216.68 179.692 215.478C179.268 214.923 178.695 214.5 178.04 214.258C177.73 214.158 177.404 214.122 177.08 214.152C176.756 214.182 176.441 214.278 176.156 214.434L176.115 214.458L176.101 214.464C172.277 216.224 168.443 217.963 164.6 219.681L153.078 224.854C145.375 228.254 137.674 231.658 129.921 234.947Z" fill="#4F66D0"/>
<path d="M192.945 237.279C191.561 238.113 190.096 238.804 188.572 239.342C187.061 239.916 185.495 240.333 183.899 240.586C185.282 239.75 186.747 239.059 188.272 238.523C189.783 237.951 191.349 237.534 192.945 237.279ZM165.71 265.031C168.581 264.722 171.468 264.576 174.355 264.595C177.243 264.574 180.13 264.72 183.001 265.031C180.13 265.342 177.243 265.488 174.355 265.467C171.468 265.486 168.581 265.34 165.71 265.031ZM160.382 231.859C159.746 231.25 159.23 230.528 158.859 229.73C158.457 228.946 158.207 228.094 158.121 227.218C158.757 227.826 159.274 228.548 159.643 229.348C160.043 230.132 160.294 230.983 160.382 231.859Z" fill="#4F66D0"/>
<path d="M98.8191 145.703L97.9712 115.087L120.831 116.342L119.828 134.619C119.776 135.571 119.537 136.504 119.124 137.364C118.711 138.224 118.133 138.995 117.422 139.631C116.712 140.268 115.883 140.758 114.983 141.074C114.083 141.391 113.129 141.527 112.177 141.474L111.656 141.446L111.485 146.672L98.8191 145.703Z" fill="#F9977A"/>
<path d="M111.74 141.445L108.085 141.244L111.57 146.671L111.74 141.445Z" fill="#DD765E"/>
<path d="M119.341 198.662C116.67 195.781 116.759 193.738 116.732 190.514L115.561 186.268C119.603 195.481 129.421 193.595 129.421 193.595C134.34 193.437 160.237 178.706 160.237 178.706L157.44 170.726L130.87 177.158C130.87 177.158 126.229 168.947 121.587 159.784C116.947 150.621 111.485 146.672 111.485 146.672L97.3219 144.546C71.935 146.767 83.904 193.937 83.904 193.937C72.1626 248.201 146.26 233.128 146.26 233.128C147.993 228.011 148.371 222.534 147.359 217.227C146.362 212.086 143.592 202.551 142.089 200.284C138.055 200.284 133.047 205.245 126.15 202.276C121.438 200.248 120.843 200.281 119.341 198.662Z" fill="#F73C4F"/>
<path d="M107.512 231.975H103.147V291.74H107.512V231.975Z" fill="#C38F86"/>
<path d="M130.87 177.158C130.968 177.648 130.928 178.156 130.754 178.625C130.596 179.099 130.307 179.519 129.921 179.837C129.756 179.349 129.76 178.819 129.932 178.333C130.104 177.847 130.434 177.433 130.87 177.158ZM117.542 189.812C116.1 187.864 114.791 185.822 113.626 183.697C112.426 181.592 111.372 179.407 110.471 177.158C111.915 179.104 113.223 181.147 114.387 183.272C115.586 185.378 116.64 187.563 117.542 189.812Z" fill="#B02336"/>
<path d="M124.467 107.346C124.467 107.346 125.056 100.861 118.645 105.281C118.645 105.281 114.996 95.4207 103.569 108.528C103.569 108.528 86.7962 109.069 93.1186 123.158C92.2159 125.222 90.9935 127.13 89.4965 128.813C84.908 134.118 82.1115 133.504 78.1827 139.498C75.0983 144.205 74.7869 147.688 74.7257 148.612C74.48 151.667 75.1356 154.726 76.6114 157.412C79.1095 161.826 84.239 165.438 89.8107 165.269C96.2038 165.074 99.4336 159.36 103.324 155.84C111.656 148.304 111.96 132.668 112.866 129.988C112.866 129.988 108.668 127.389 112.122 124.75C112.5 124.453 112.94 124.242 113.409 124.133C113.878 124.024 114.366 124.019 114.837 124.12C115.156 124.15 115.453 124.296 115.673 124.529C115.892 124.763 116.019 125.069 116.029 125.389L120.831 116.342C120.831 116.342 125.183 117.628 125.238 112.393C125.238 112.393 129.91 109.973 124.467 107.346Z" fill="#160B07"/>
<path d="M73.512 222.26C73.512 222.26 68.038 205.838 72.322 172.279C72.322 172.279 73.988 160.974 85.174 160.141C96.3601 159.308 104.571 177.44 107.903 195.982C111.235 214.525 118.613 231.098 142.77 231.558C142.77 231.558 174.69 237.016 106.727 240.11C106.727 240.11 77.677 240.348 73.512 222.26Z" fill="#D5EFC8"/>
<path d="M112.947 134.435C116.317 134.435 116.323 129.197 112.947 129.197C109.577 129.197 109.571 134.435 112.947 134.435Z" fill="#F73C4F"/>
<path d="M86.4736 291.74H124.186L105.33 273.72L86.4736 291.74Z" fill="#C38F86"/>
<path d="M189.923 94.8813L145.509 136.848L146.108 137.483L190.523 95.5159L189.923 94.8813Z" fill="#748CE2"/>
<path d="M192.036 115.52L147.622 157.487L148.222 158.122L192.636 116.155L192.036 115.52Z" fill="#748CE2"/>
<path d="M164.737 165.996C169.402 164.996 174.262 165.467 178.648 167.344C178.648 167.344 177.01 168.676 176.696 171.975C176.696 171.975 175.358 170.097 162.763 169.749C162.596 169.377 162.515 168.971 162.528 168.562C162.541 168.154 162.646 167.754 162.837 167.393C163.027 167.031 163.297 166.717 163.626 166.475C163.955 166.234 164.335 166.07 164.737 165.996Z" fill="#8B9D36"/>
<path d="M164.573 166.665C164.573 166.665 171.671 165.455 176.939 167.464C176.525 167.836 176.189 168.285 175.95 168.787C175.711 169.289 175.575 169.833 175.547 170.388C175.547 170.388 172.308 168.992 163.417 168.731C163.417 168.731 162.34 167.197 164.573 166.665Z" fill="#5E7C24"/>
<path d="M157.44 170.725C157.44 170.725 162.781 163.557 164.298 164.054C165.816 164.551 163.678 169.023 163.678 169.023L166.865 170.067C166.865 170.067 168.053 177.278 160.238 178.706L157.44 170.725Z" fill="#F9977A"/>
</svg>
