<svg width="54" height="54" viewBox="0 0 54 54" fill="none" xmlns="http://www.w3.org/2000/svg">
<circle cx="26.75" cy="26.75" r="26.75" fill="#BDF8C6"/>
<path d="M20.1389 28.9217L19.2745 27.9802C18.9085 27.5816 18.9085 26.9371 19.2745 26.5427L26.84 18.299C27.206 17.9003 27.7979 17.9003 28.16 18.299L35.7255 26.5384C36.0915 26.9371 36.0915 27.5816 35.7255 27.976L34.8611 28.9174C34.4912 29.3203 33.8877 29.3118 33.5255 28.9005L29.0594 23.7948V35.9823C29.0594 36.5463 28.6428 37 28.1249 37H26.8789C26.3611 37 25.9445 36.5463 25.9445 35.9823V23.7948L21.4745 28.9047C21.1123 29.3203 20.5088 29.3288 20.1389 28.9217Z" fill="#8FC196"/>
</svg>
