<svg width="374" height="488" viewBox="0 0 374 488" fill="none" xmlns="http://www.w3.org/2000/svg">
<path d="M203.875 440.397C297.358 440.397 373.142 451.053 373.142 464.198C373.142 477.344 297.358 488 203.875 488C110.392 488 34.6084 477.344 34.6084 464.198C34.6084 451.053 110.392 440.397 203.875 440.397Z" fill="#F5F5F5"/>
<path d="M107.85 462.222L175.918 462.222L175.918 428.602L107.85 428.602L107.85 462.222Z" fill="#407BFF"/>
<path opacity="0.3" d="M107.85 462.222L175.918 462.222L175.918 428.602L107.85 428.602L107.85 462.222Z" fill="#735555"/>
<path opacity="0.2" d="M124.877 462.222L124.877 428.601L107.85 428.601L107.85 462.222L124.877 462.222Z" fill="#C26B6B"/>
<path d="M233.897 269.034C234.643 270.719 235.006 272.545 234.962 274.383C234.918 276.222 234.468 278.029 233.642 279.677C232.817 281.326 231.637 282.776 230.185 283.927C228.732 285.077 227.043 285.9 225.234 286.338C212.187 291.426 198.267 277.129 198.267 277.129L173.917 250.278C168.128 248.785 165.148 237.978 166.659 232.238C167.014 230.874 167.637 229.593 168.494 228.468C169.351 227.343 170.424 226.395 171.651 225.681C172.879 224.966 174.238 224.497 175.649 224.302C177.061 224.106 178.497 224.188 179.877 224.542L210.442 259.866L199.799 217.456L210.314 214.765L233.897 269.034Z" fill="#FFAB48"/>
<g opacity="0.6">
<path opacity="0.6" d="M233.897 269.034C234.643 270.719 235.006 272.545 234.962 274.383C234.918 276.222 234.468 278.029 233.642 279.677C232.817 281.326 231.637 282.776 230.185 283.927C228.732 285.077 227.043 285.9 225.234 286.338C212.187 291.426 198.267 277.129 198.267 277.129L173.917 250.278C168.128 248.785 165.148 237.978 166.659 232.238C167.014 230.874 167.637 229.593 168.494 228.468C169.351 227.343 170.424 226.395 171.651 225.681C172.879 224.966 174.238 224.497 175.649 224.302C177.061 224.106 178.497 224.188 179.877 224.542L210.442 259.866L199.799 217.456L210.314 214.765L233.897 269.034Z" fill="#FFAB48"/>
</g>
<path d="M199.842 217.372C199.565 210.272 201.651 203.278 205.78 197.46L210.484 190.795L217.338 200.089L209.952 214.807L199.842 217.372Z" fill="#FFC3BD"/>
<path d="M208.739 194.685L206.972 187.537L212.783 182.848C212.783 182.848 220.233 196.052 217.338 200.173C211.421 208.542 208.739 194.685 208.739 194.685Z" fill="#FFC3BD"/>
<path opacity="0.2" d="M181.622 246.809C181.622 245.884 192.839 271.22 192.839 271.22L172.64 248.912L181.622 246.809Z" fill="black"/>
<path d="M175.45 222.86C175.45 222.86 195.947 213.945 170.512 312.348C168.277 320.947 175.13 330.43 173.492 341.006C168.958 369.833 123.281 393.256 102.997 392.92C92.1416 392.751 100.868 382.407 96.3134 382.407C95.9942 370.695 79.4347 319.728 92.9717 243.087C95.6536 227.928 102.486 214.008 118.088 213.462L118.513 213.462C129.901 213.104 139.926 216.868 149.929 217.94C158.554 218.914 167.087 220.559 175.45 222.86Z" fill="#FFAB48"/>
<path opacity="0.6" d="M175.45 222.86C175.45 222.86 195.947 213.945 170.512 312.348C168.277 320.947 175.13 330.43 173.492 341.006C168.958 369.833 123.281 393.256 102.997 392.92C92.1416 392.751 100.868 382.407 96.3134 382.407C95.9942 370.695 79.4347 319.728 92.9717 243.087C95.6536 227.928 102.486 214.008 118.088 213.462L118.513 213.462C129.901 213.104 139.926 216.868 149.929 217.94C158.554 218.914 167.087 220.559 175.45 222.86Z" fill="#FFAB48"/>
<path d="M314.375 415.754L288.471 419.223L250.159 334.172C235.877 357.953 218.36 375.909 198.203 400.215C165.063 440.165 137.116 431.46 121.089 416.322C112.064 407.911 112.256 364.366 112.256 364.366L166.234 337.873C166.234 337.873 239.048 277.486 260.652 278.453C283.342 268.129 314.375 415.754 314.375 415.754Z" fill="#1E0448"/>
<g opacity="0.2">
<path opacity="0.2" d="M314.375 415.754L288.471 419.223L250.159 334.172C235.877 357.953 218.36 375.909 198.203 400.215C165.063 440.165 137.116 431.46 121.089 416.322C112.064 407.911 112.256 364.366 112.256 364.366L166.234 337.873C166.234 337.873 239.048 277.486 260.652 278.453C283.342 268.129 314.375 415.754 314.375 415.754Z" fill="#1E0448"/>
</g>
<path d="M308.351 413.126L308.372 413.21L315.247 440.355L300.05 445.106L294.92 429.694L291.217 418.487L291.196 418.466L308.351 413.126Z" fill="#FFC3BD"/>
<path d="M317.652 437.159L297.241 436.802C296.876 436.785 296.518 436.9 296.233 437.124C295.947 437.348 295.753 437.667 295.687 438.021L292.26 454.379C292.182 454.782 292.195 455.197 292.296 455.594C292.398 455.992 292.586 456.362 292.847 456.681C293.108 456.999 293.437 457.257 293.81 457.437C294.183 457.617 294.591 457.715 295.006 457.723C302.37 457.723 313.012 457.491 322.271 457.723C333.084 457.912 333.126 458.501 345.812 458.732C353.496 458.858 355.475 451.247 352.198 450.49C337.511 447.062 334.893 446.684 322.122 438.757C320.803 437.84 319.26 437.289 317.652 437.159Z" fill="#263238"/>
<path d="M325.421 440.397C327.826 440.397 330.147 440.144 330.891 439.093C331.094 438.814 331.203 438.48 331.203 438.136C331.203 437.793 331.094 437.458 330.891 437.18C330.571 436.661 330.06 436.284 329.465 436.128C326.337 435.245 319.866 438.799 319.611 438.946C319.529 438.989 319.464 439.058 319.425 439.142C319.387 439.225 319.377 439.319 319.398 439.408C319.414 439.497 319.457 439.579 319.522 439.643C319.587 439.707 319.669 439.75 319.76 439.766C321.625 440.136 323.519 440.347 325.421 440.397ZM328.337 436.864C328.624 436.865 328.91 436.901 329.189 436.969C329.55 437.062 329.862 437.288 330.061 437.6C330.381 438.147 330.274 438.42 330.168 438.567C329.316 439.745 324.591 439.682 321.101 439.135C323.326 437.923 325.77 437.151 328.295 436.864L328.337 436.864Z" fill="#407BFF"/>
<path d="M319.781 439.766C319.836 439.785 319.896 439.785 319.951 439.766C322.186 438.799 326.592 434.888 326.209 432.785C326.209 432.302 325.762 431.692 324.549 431.545C324.114 431.488 323.673 431.521 323.252 431.64C322.831 431.76 322.439 431.963 322.101 432.239C319.76 434.131 319.334 439.093 319.334 439.303C319.321 439.379 319.329 439.457 319.36 439.528C319.39 439.599 319.44 439.66 319.504 439.703C319.587 439.755 319.684 439.777 319.781 439.766ZM324.208 432.365L324.464 432.365C325.272 432.47 325.315 432.764 325.336 432.869C325.57 434.131 322.591 437.222 320.313 438.546C320.479 436.463 321.306 434.484 322.676 432.89C323.105 432.537 323.65 432.35 324.208 432.365Z" fill="#407BFF"/>
<path opacity="0.2" d="M308.351 413.147L308.373 413.21L311.586 425.426L294.921 429.695L291.217 418.488L308.351 413.147Z" fill="black"/>
<path d="M316.588 404.358C317.014 409.951 317.354 418.277 317.354 418.277L285.725 425.531L281.213 412.453L316.588 404.358Z" fill="#263238"/>
<path opacity="0.2" d="M316.588 404.358C317.014 409.951 317.354 418.277 317.354 418.277L285.725 425.531L281.213 412.453L316.588 404.358Z" fill="#1E0448"/>
<path d="M297.411 415.922L295.133 417.668L303.2 444.981L287.173 449.102L276.935 421.179L297.411 415.922Z" fill="#FFC3BD"/>
<path d="M305.243 441.049L284.831 441.049C284.463 441.043 284.105 441.167 283.82 441.398C283.535 441.629 283.343 441.952 283.278 442.31L280.128 458.711C280.056 459.114 280.075 459.527 280.182 459.923C280.289 460.318 280.482 460.685 280.747 460.999C281.013 461.314 281.344 461.567 281.719 461.742C282.093 461.917 282.502 462.009 282.916 462.012C290.28 461.907 300.901 461.507 310.16 461.528C320.994 461.528 321.037 462.138 333.722 462.18C341.406 462.18 343.279 454.527 340.108 453.77C325.379 450.574 322.739 450.216 309.862 442.5C308.489 441.602 306.89 441.1 305.243 441.049Z" fill="#263238"/>
<path d="M312.97 444.139C315.375 444.139 317.674 443.824 318.419 442.773C318.603 442.482 318.692 442.142 318.673 441.799C318.654 441.457 318.528 441.128 318.312 440.859C318.156 440.602 317.949 440.379 317.705 440.202C317.46 440.025 317.182 439.898 316.886 439.829C313.736 438.988 307.329 442.647 307.053 442.815C306.977 442.858 306.917 442.924 306.882 443.004C306.848 443.084 306.84 443.172 306.861 443.256C306.877 443.345 306.921 443.427 306.985 443.491C307.05 443.555 307.133 443.598 307.223 443.614C309.12 443.953 311.042 444.129 312.97 444.139ZM315.822 440.565C316.109 440.566 316.395 440.601 316.673 440.67C317.039 440.755 317.358 440.973 317.567 441.28C317.887 441.827 317.802 442.1 317.674 442.247C316.844 443.446 312.119 443.467 308.628 442.962C310.846 441.71 313.289 440.896 315.822 440.565Z" fill="#407BFF"/>
<path d="M307.308 443.614L307.478 443.614C309.607 442.605 314.055 438.631 313.63 436.549C313.63 436.044 313.161 435.435 311.948 435.309C311.513 435.261 311.072 435.304 310.654 435.434C310.236 435.565 309.851 435.78 309.522 436.066C307.202 437.979 306.861 442.962 306.861 443.172C306.857 443.249 306.872 443.326 306.906 443.396C306.939 443.466 306.99 443.526 307.053 443.572C307.133 443.607 307.221 443.622 307.308 443.614ZM311.565 436.15L311.821 436.15C312.629 436.15 312.693 436.528 312.693 436.633C312.949 437.895 310.011 441.028 307.755 442.373C307.891 440.292 308.688 438.305 310.033 436.696C310.476 436.322 311.046 436.127 311.629 436.15L311.565 436.15Z" fill="#407BFF"/>
<path opacity="0.2" d="M295.091 416.532L298.347 428.538L281.235 432.932L276.935 421.179L295.091 416.532Z" fill="black"/>
<path d="M303.945 408.311C304.541 413.883 305.073 422.209 305.073 422.209L273.7 430.262L268.868 417.31L303.945 408.311Z" fill="#263238"/>
<path opacity="0.3" d="M303.945 408.311C304.541 413.883 305.073 422.209 305.073 422.209L273.7 430.262L268.868 417.31L303.945 408.311Z" fill="#1E0448"/>
<path d="M158.401 259.53C158.039 273.849 157.805 302.907 151.334 320.737C150.227 323.765 153.761 337.222 153.761 337.222C157.02 333.182 159.872 328.837 162.275 324.248C166.276 313.735 165.105 305.325 165.638 298.681C166.787 284.236 164.68 276.309 162.338 258.058C161.764 259.13 159.337 260.287 158.401 259.53Z" fill="#1E0448"/>
<path d="M301.093 412.789L273.317 419.35L233.344 331.271C220.424 348.954 199.289 377.844 181.835 401.961C151.398 444.013 106.466 435.203 98.825 406.166C95.0417 391.573 92.7668 376.638 92.0352 361.591L146.439 346.389C146.439 346.389 210.889 277.003 245.923 277.886C270.039 268.992 301.093 412.789 301.093 412.789Z" fill="#1E0448"/>
<path opacity="0.2" d="M146.375 346.389C146.375 346.389 117.002 378.139 116.385 368.088C115.768 358.038 146.375 346.389 146.375 346.389Z" fill="black"/>
<path d="M161.657 259.698C162.072 258.871 162.421 258.013 162.7 257.132C162.871 255.892 164.233 241.72 164.233 241.72C163.679 241.068 162.977 240.942 162.424 240.291C162.019 241.237 161.146 253.873 160.529 254.693C159.976 254.693 159.508 254.693 158.954 254.693C157.528 251.35 150.44 238.882 150.44 238.062C149.482 238.062 148.95 239.681 148.546 240.522C149.482 241.804 156.102 256.754 158.358 259.845C159.455 260.037 160.582 259.987 161.657 259.698Z" fill="#1E0448"/>
<path d="M130.795 218.823C129.064 221.7 128.487 225.113 129.177 228.39C129.752 231.649 133.434 238.335 134.839 241.363C136.563 245.19 140.926 254.399 148.546 257.721C152.122 259.277 157.762 254.105 158.912 247.608C160.707 250.731 162.927 253.596 165.51 256.123C168.745 257.259 167.958 230.24 163.786 224.857C154.612 213.167 134.605 212.978 130.795 218.823Z" fill="white"/>
<path opacity="0.8" d="M130.795 218.823C129.064 221.7 128.487 225.113 129.177 228.39C129.752 231.649 133.434 238.335 134.839 241.363C136.563 245.19 140.926 254.399 148.546 257.721C152.122 259.277 157.762 254.105 158.912 247.608C160.707 250.731 162.927 253.596 165.51 256.123C168.745 257.259 167.958 230.24 163.786 224.857C154.612 213.167 134.605 212.978 130.795 218.823Z" fill="white"/>
<path d="M158.699 195.631L162.53 207.721L167.745 224.185C166.217 225.042 164.855 226.16 163.722 227.486C162.274 228.804 161.361 230.598 161.153 232.533C160.946 234.467 161.458 236.41 162.594 237.999C163.871 239.429 161.04 248.007 150.909 242.625C147.919 241.295 145.241 239.368 143.043 236.965C140.845 234.562 139.175 231.736 138.138 228.663C137.329 225.278 137.435 223.68 140.649 221.746C149.844 216.237 155.336 204.988 158.699 195.631Z" fill="#FFC3BD"/>
<path opacity="0.2" d="M166.531 220.148L163.722 208.667L163.105 209.382C162.251 210.465 161.482 211.611 160.806 212.809C158.528 216.909 160.189 224.142 163.126 228.201L163.807 227.486C164.894 226.25 166.147 225.168 167.532 224.269L167.808 224.269L166.531 220.148Z" fill="black"/>
<path d="M185.347 204.946C197.437 195.82 199.374 188.356 208.505 184.74C212.421 184.74 215.252 193.403 206.653 201.687C198.054 209.971 185.347 204.946 185.347 204.946Z" fill="#263238"/>
<path d="M192.541 220.337C191.116 221.757 189.497 222.975 187.731 223.954C176.152 230.493 160.21 225.888 156.762 211.801C156.512 210.732 156.32 209.651 156.187 208.563C155.208 199.437 159.87 192.015 166.553 179.757C168.238 176.54 170.717 173.794 173.761 171.775C176.806 169.756 180.316 168.528 183.969 168.205C187.621 167.882 191.297 168.475 194.655 169.928C198.014 171.381 200.947 173.648 203.184 176.519C213.145 189.492 202.822 210.182 192.541 220.337Z" fill="#FFC3BD"/>
<path opacity="0.2" d="M192.073 220.863C178.025 232.89 160.295 225.888 156.847 211.8C156.597 210.732 156.405 209.651 156.272 208.562C156.272 208.205 156.272 207.868 156.272 207.511C156.677 202.423 157.358 197.124 160.252 192.793C160.874 192.787 161.494 192.724 162.104 192.603C162.445 192.477 165.531 192.709 165.51 193.087C164.765 200.951 171.448 203.789 177.663 207.974C179.6 209.277 182.516 210.076 185.475 212.179C185.475 212.326 192.073 217.372 192.073 220.863Z" fill="black"/>
<path d="M158.912 191.405L164.36 195.463L171.853 188.777L176.11 184.74L192.328 179.336C192.328 179.336 178.004 166.72 173.343 163.777C171.725 162.725 163.403 164.534 161.551 166.09C159.055 168.298 157.233 171.151 156.289 174.327C155.346 177.503 155.318 180.876 156.208 184.067C156.852 186.598 157.758 189.057 158.912 191.405Z" fill="#263238"/>
<path d="M154.782 186.569C153.681 189.867 153.84 193.45 155.229 196.641C157.081 200.72 162.147 199.311 164.361 195.463C166.319 192.036 166.808 186.001 163.637 183.205C160.465 180.408 156.166 182.469 154.782 186.569Z" fill="#FFC3BD"/>
<path d="M184.347 197.524C183.602 198.575 183.559 199.858 184.347 200.341C185.134 200.825 186.113 200.341 186.922 199.332C187.287 198.943 187.49 198.432 187.49 197.902C187.49 197.372 187.287 196.861 186.922 196.472C186.199 195.968 185.07 196.346 184.347 197.524Z" fill="#263238"/>
<path d="M196.33 206.081C195.585 207.154 195.542 208.436 196.33 208.941C197.117 209.446 198.182 208.941 198.905 207.911C199.629 206.88 199.672 205.577 198.905 205.072C198.139 204.568 197.032 205.03 196.33 206.081Z" fill="#263238"/>
<path d="M191.924 204.126C190.859 207.629 190.265 211.256 190.158 214.912C189.231 214.854 188.329 214.592 187.519 214.144C186.709 213.697 186.01 213.075 185.475 212.326L191.924 204.126Z" fill="#ED847E"/>
<path d="M184.326 216.51C183.395 215.327 182.23 214.344 180.901 213.621C179.573 212.898 178.109 212.45 176.599 212.305C176.548 212.299 176.497 212.304 176.448 212.319C176.399 212.335 176.354 212.36 176.315 212.394C176.277 212.428 176.247 212.469 176.226 212.515C176.205 212.562 176.194 212.612 176.195 212.663C176.194 212.762 176.231 212.857 176.298 212.931C176.365 213.005 176.457 213.052 176.557 213.062C178.195 213.242 179.769 213.795 181.154 214.678C182.539 215.561 183.698 216.75 184.538 218.15C184.588 218.241 184.671 218.309 184.77 218.34C184.869 218.371 184.977 218.364 185.07 218.319C185.117 218.299 185.159 218.269 185.193 218.232C185.227 218.195 185.254 218.151 185.27 218.104C185.286 218.056 185.291 218.006 185.286 217.956C185.281 217.906 185.266 217.858 185.241 217.814C184.943 217.373 184.645 216.91 184.326 216.51Z" fill="#263238"/>
<path d="M184.581 192.141C184.487 192.053 184.414 191.945 184.368 191.826C184.315 191.631 184.341 191.423 184.44 191.246C184.539 191.07 184.704 190.938 184.9 190.879C186.046 190.506 187.267 190.418 188.455 190.624C189.643 190.829 190.762 191.322 191.711 192.057C191.792 192.116 191.859 192.192 191.909 192.278C191.958 192.365 191.989 192.46 191.999 192.559C192.009 192.658 191.998 192.758 191.967 192.853C191.936 192.947 191.885 193.034 191.818 193.108C191.746 193.179 191.662 193.235 191.569 193.273C191.476 193.311 191.376 193.331 191.275 193.331C191.174 193.331 191.074 193.311 190.981 193.273C190.888 193.235 190.803 193.179 190.732 193.108C189.975 192.547 189.093 192.173 188.159 192.019C187.226 191.866 186.269 191.936 185.368 192.225C185.243 192.288 185.102 192.314 184.962 192.299C184.822 192.284 184.69 192.229 184.581 192.141Z" fill="#263238"/>
<path d="M201.14 199.206C201.141 199.073 201.177 198.942 201.247 198.827C201.311 198.75 201.39 198.685 201.479 198.637C201.568 198.59 201.666 198.561 201.767 198.551C201.868 198.541 201.97 198.551 202.067 198.581C202.164 198.61 202.254 198.658 202.332 198.722C203.296 199.439 204.065 200.381 204.57 201.464C205.075 202.546 205.301 203.735 205.227 204.925C205.231 205.033 205.212 205.141 205.17 205.24C205.129 205.34 205.066 205.43 204.986 205.504C204.907 205.578 204.812 205.635 204.708 205.669C204.605 205.704 204.495 205.717 204.386 205.706C204.277 205.696 204.172 205.662 204.077 205.608C203.983 205.554 203.901 205.48 203.838 205.392C203.774 205.305 203.73 205.204 203.709 205.098C203.688 204.992 203.691 204.883 203.716 204.778C203.759 203.838 203.568 202.901 203.159 202.051C202.751 201.201 202.138 200.462 201.375 199.9C201.281 199.812 201.211 199.703 201.17 199.582C201.129 199.461 201.119 199.332 201.14 199.206Z" fill="#263238"/>
<path d="M164.233 168.108C168.319 173.47 183.048 177.675 188.518 181.649C191.831 184.32 194.735 187.45 197.139 190.943C197.799 187.284 196.82 185.371 195.33 181.964C198.921 186.326 201.383 191.486 202.503 196.998C204.574 193.375 205.325 189.16 204.631 185.055C208.419 190.549 210.308 197.106 210.016 203.748C212.337 199.072 213.615 193.958 213.761 188.753C213.908 183.547 212.921 178.371 210.867 173.575C206.61 163.903 191.222 151.729 180.835 154.273C159.997 159.382 164.233 168.108 164.233 168.108Z" fill="#263238"/>
<path d="M159.848 304.294C131.667 311.527 96.2923 238.399 96.2923 238.399C92.0353 233.584 96.1646 222.208 101.039 218.045C102.197 217.051 103.541 216.292 104.997 215.812C106.452 215.331 107.988 215.14 109.519 215.247C111.049 215.354 112.543 215.759 113.915 216.438C115.287 217.116 116.509 218.056 117.513 219.202C117.513 219.202 146.226 278.327 159.721 277.297L216.082 270.548C232.365 267.646 225.384 280.241 219.573 282.995L167.468 301.477C164.99 302.572 162.445 303.513 159.848 304.294Z" fill="#FFAB48"/>
<path opacity="0.7" d="M159.848 304.294C131.667 311.527 96.2923 238.399 96.2923 238.399C92.0353 233.584 96.1646 222.208 101.039 218.045C102.197 217.051 103.541 216.292 104.997 215.812C106.452 215.331 107.988 215.14 109.519 215.247C111.049 215.354 112.543 215.759 113.915 216.438C115.287 217.116 116.509 218.056 117.513 219.202C117.513 219.202 146.226 278.327 159.721 277.297L216.082 270.548C232.365 267.646 225.384 280.241 219.573 282.995L167.468 301.477C164.99 302.572 162.445 303.513 159.848 304.294Z" fill="#FFAB48"/>
<path d="M257.779 287.747C257.779 287.747 246.072 287.894 243.795 288.441L237.409 280.872L223.425 281.103C222.502 281.144 221.583 280.951 220.756 280.542C219.929 280.134 219.221 279.523 218.7 278.769C218.126 276.183 220.701 272.461 224.596 271.2C225.447 270.926 249.116 273.449 249.116 273.449C256.544 276.751 257.779 287.747 257.779 287.747Z" fill="#FFC3BD"/>
<path d="M106.594 151.351C106.458 152.59 106.698 153.842 107.282 154.948C107.867 156.053 108.77 156.963 109.877 157.561C110.984 158.16 112.247 158.421 113.504 158.311C114.762 158.201 115.958 157.726 116.942 156.945C117.926 156.164 118.654 155.112 119.033 153.922C119.412 152.733 119.426 151.459 119.072 150.262C118.719 149.064 118.014 147.998 117.047 147.196C116.08 146.394 114.894 145.894 113.639 145.758C112.805 145.667 111.96 145.74 111.154 145.972C110.348 146.205 109.597 146.591 108.942 147.111C108.288 147.63 107.744 148.272 107.341 149C106.938 149.727 106.684 150.526 106.594 151.351Z" fill="white"/>
<path d="M112.958 159.404L112.128 159.404C110.164 159.182 108.368 158.202 107.132 156.678C105.896 155.153 105.32 153.208 105.53 151.267C105.634 150.305 105.93 149.373 106.402 148.524C106.873 147.676 107.51 146.929 108.275 146.325C109.817 145.109 111.783 144.542 113.746 144.748C115.646 144.95 117.397 145.863 118.636 147.301C119.876 148.738 120.511 150.59 120.41 152.476C120.309 154.362 119.48 156.138 118.094 157.438C116.708 158.739 114.87 159.465 112.958 159.467L112.958 159.404ZM112.958 146.788C111.749 146.782 110.575 147.19 109.638 147.944C108.807 148.594 108.191 149.472 107.867 150.468C107.543 151.464 107.527 152.533 107.819 153.538C108.111 154.544 108.699 155.441 109.508 156.115C110.317 156.79 111.311 157.212 112.364 157.328C113.416 157.443 114.48 157.247 115.419 156.764C116.359 156.282 117.132 155.534 117.64 154.616C118.149 153.699 118.37 152.652 118.275 151.611C118.18 150.569 117.774 149.578 117.109 148.764C116.677 148.224 116.14 147.774 115.53 147.442C114.919 147.109 114.247 146.901 113.554 146.83L112.958 146.788Z" fill="#1E0448"/>
<path d="M123.962 167.078C123.878 167.79 124.009 168.511 124.34 169.149C124.671 169.787 125.187 170.314 125.821 170.662C126.456 171.01 127.181 171.163 127.904 171.103C128.627 171.043 129.316 170.773 129.883 170.325C130.45 169.878 130.87 169.274 131.089 168.59C131.308 167.906 131.316 167.174 131.112 166.486C130.909 165.798 130.503 165.185 129.946 164.725C129.389 164.265 128.707 163.979 127.985 163.903C127.026 163.803 126.066 164.08 125.313 164.674C124.56 165.269 124.074 166.132 123.962 167.078Z" fill="white"/>
<path d="M127.644 172.124L127.112 172.124C126.499 172.06 125.905 171.877 125.365 171.585C124.824 171.292 124.347 170.897 123.962 170.421C123.177 169.457 122.81 168.225 122.94 166.994C123.076 165.767 123.699 164.644 124.673 163.871C125.647 163.098 126.892 162.739 128.134 162.873C129.376 163.007 130.513 163.622 131.295 164.585C132.078 165.547 132.441 166.776 132.306 168.003C132.204 169.154 131.669 170.225 130.805 171.004C129.942 171.783 128.814 172.213 127.644 172.209L127.644 172.124ZM125.069 167.204C125.025 167.537 125.051 167.875 125.146 168.198C125.242 168.52 125.404 168.819 125.622 169.076C125.832 169.339 126.092 169.558 126.388 169.721C126.684 169.884 127.01 169.987 127.347 170.024C127.684 170.061 128.024 170.032 128.35 169.938C128.675 169.843 128.978 169.686 129.241 169.475C129.64 169.162 129.936 168.738 130.092 168.258C130.247 167.778 130.254 167.263 130.113 166.778C129.972 166.294 129.688 165.862 129.298 165.537C128.907 165.213 128.428 165.01 127.921 164.955C127.242 164.883 126.561 165.08 126.027 165.501C125.494 165.922 125.149 166.534 125.069 167.204Z" fill="#1E0448"/>
<path d="M24.5416 37.7253C28.6615 27.278 35.7777 18.2452 45.018 11.7345C54.2582 5.22378 65.2208 1.51801 76.5617 1.07158C87.9026 0.62515 99.129 3.45746 108.864 9.22123C118.6 14.985 126.421 23.4297 131.369 33.5201C133.088 33.4749 134.807 33.524 136.52 33.6673C142.591 34.0804 148.518 35.6844 153.955 38.3856C159.391 41.0869 164.228 44.8312 168.184 49.4C172.139 53.9687 175.133 59.2702 176.991 64.9948C178.848 70.7194 179.533 76.7523 179.004 82.7411C178.475 88.73 176.744 94.5547 173.91 99.875C171.077 105.195 167.199 109.905 162.503 113.728C157.806 117.551 152.386 120.411 146.558 122.142C140.73 123.872 134.612 124.438 128.56 123.806L126.325 123.554C117.896 133.198 106.138 139.401 93.3368 140.955C80.5355 142.51 67.6066 139.305 57.0646 131.964C54.2317 132.201 51.3836 132.201 48.5507 131.964C37.7822 131.031 27.5758 126.806 19.3512 119.876C11.1265 112.946 5.29263 103.657 2.66094 93.2996C0.0292389 82.9423 0.730588 72.0322 4.66742 62.087C8.60424 52.1417 15.5808 43.6558 24.6267 37.8094L24.5416 37.7253Z" fill="white"/>
<path d="M86.9269 142.33C85.4157 142.33 83.9044 142.33 82.3719 142.12C73.2023 141.312 64.4018 138.168 56.8303 132.995C54.0319 133.205 51.2214 133.205 48.4229 132.995C37.4627 132.044 27.0725 127.752 18.6905 120.712C10.3084 113.671 4.34905 104.231 1.63715 93.6976C-1.07475 83.1642 -0.40506 72.0585 3.55354 61.9176C7.51214 51.7767 14.5639 43.1022 23.7327 37.0946C27.9462 26.5666 35.1534 17.4679 44.4849 10.8961C53.8164 4.32429 64.8735 0.560161 76.3223 0.0578015C87.7712 -0.444558 99.1226 2.33631 109.007 8.06494C118.892 13.7936 126.887 22.2252 132.029 32.3427C133.556 32.3232 135.084 32.3794 136.605 32.5109C149.002 33.576 160.462 39.4622 168.465 48.8745C176.469 58.2868 180.359 70.4543 179.281 82.7003C178.203 94.9462 172.244 106.268 162.716 114.174C153.188 122.08 140.871 125.923 128.474 124.858L126.75 124.689C121.743 130.233 115.608 134.67 108.745 137.71C101.883 140.75 94.4478 142.325 86.9269 142.33ZM57.3624 130.829L57.6817 131.06C68.0151 138.241 80.6826 141.367 93.2203 139.832C105.758 138.297 117.27 132.21 125.516 122.755L125.899 122.314L126.474 122.314C127.197 122.426 127.907 122.51 128.602 122.566C140.423 123.586 152.17 119.926 161.259 112.391C170.348 104.856 176.034 94.0621 177.067 82.3849C178.1 70.7078 174.395 59.1035 166.767 50.1249C159.139 41.1463 148.213 35.5289 136.392 34.5084C134.715 34.3633 133.031 34.3141 131.348 34.3612L130.667 34.3612L130.369 33.7514C125.509 23.8426 117.827 15.551 108.265 9.89452C98.7021 4.238 87.6758 1.46269 76.5392 1.90927C65.4026 2.35584 54.6404 6.00486 45.5735 12.4084C36.5067 18.812 29.5298 27.6914 25.4993 37.9567L25.3716 38.2721L25.0737 38.4613C15.6041 44.581 8.46709 53.6415 4.78906 64.213C1.11103 74.7845 1.10142 86.265 4.76171 96.8425C8.422 107.42 15.5438 116.492 25.0031 122.627C34.4623 128.763 45.7204 131.611 57.0006 130.724L57.3624 130.829Z" fill="#1E0448"/>
<path d="M92.4046 45.3734L92.7672 45.7176L92.4045 45.3734C91.835 45.9734 91.5211 46.7805 91.5257 47.6161L91.5968 60.4929L81.729 60.5461L76.6518 48.125L76.6518 48.1249L76.6484 48.117C76.127 46.9021 75.2212 45.9044 74.0765 45.2933C72.9313 44.6818 71.6181 44.4955 70.3557 44.7671C69.0935 45.0386 67.9626 45.7505 67.148 46.7796C66.3338 47.8083 65.8833 49.0931 65.8676 50.4211L65.8675 50.4211L65.8676 50.4298L65.9239 60.6312L60.0057 60.6631C59.1854 60.6675 58.4049 61.0115 57.8347 61.6122C57.2652 62.2122 56.9513 63.0193 56.9559 63.8549C56.9605 64.6906 57.2833 65.4943 57.8594 66.0881C58.4362 66.6826 59.2204 67.0182 60.0407 67.0138L65.9589 66.9819L65.983 71.3326L60.0647 71.3645C59.2444 71.3689 58.464 71.7129 57.8938 72.3136C57.3243 72.9136 57.0103 73.7207 57.015 74.5564C57.0196 75.392 57.3424 76.1957 57.9185 76.7895C58.4953 77.3841 59.2795 77.7196 60.0998 77.7152L66.018 77.6833L66.0891 90.5601C66.0937 91.3958 66.4165 92.1994 66.9926 92.7933C67.5694 93.3878 68.3536 93.7234 69.1739 93.7189C69.9942 93.7145 70.7746 93.3705 71.3448 92.7698C71.9143 92.1698 72.2282 91.3627 72.2236 90.5271L72.1526 77.6503L82.0204 77.5971L87.0973 90.0174C87.0973 90.0176 87.0974 90.0177 87.0974 90.0178C87.526 91.0714 88.2434 91.974 89.1636 92.6111C90.0767 93.2433 91.1489 93.5858 92.2487 93.5944C92.6196 93.6333 92.9936 93.6303 93.3639 93.5853L93.3873 93.5825L93.4103 93.5775C94.7054 93.295 95.8598 92.549 96.675 91.475C97.4889 90.4027 97.9145 89.0702 97.8817 87.7088L97.8255 77.512L103.744 77.4802C104.564 77.4757 105.344 77.1318 105.915 76.531C106.484 75.931 106.798 75.1239 106.793 74.2883C106.789 73.4526 106.466 72.649 105.89 72.0551C105.313 71.4606 104.529 71.125 103.709 71.1295L97.7904 71.1613L97.7664 66.8106L103.685 66.7787C104.505 66.7743 105.285 66.4303 105.856 65.8296C106.425 65.2296 106.739 64.4225 106.734 63.5869C106.73 62.7512 106.407 61.9475 105.831 61.3537C105.254 60.7592 104.47 60.4236 103.65 60.428L97.7314 60.4599L97.6603 47.5831C97.6557 46.7475 97.3329 45.9438 96.7568 45.35L96.3979 45.6981L96.7568 45.35C96.18 44.7554 95.3958 44.4199 94.5755 44.4243C93.7552 44.4287 92.9747 44.7727 92.4046 45.3734ZM91.6318 66.8436L91.6559 71.1944L86.0767 71.2244L84.3201 66.883L91.6318 66.8436ZM72.0585 60.5982L72.0165 52.9892L75.1069 60.5817L72.0585 60.5982ZM72.1175 71.2996L72.0935 66.9489L77.6727 66.9188L79.4293 71.2602L72.1175 71.2996ZM91.6909 77.5451L91.7329 85.1541L88.6425 77.5615L91.6909 77.5451Z" fill="#1E0448" stroke="#1E0448"/>
</svg>
