<svg width="24" height="26" viewBox="0 0 24 26" fill="none" xmlns="http://www.w3.org/2000/svg">
<path d="M23.7 13.8687V8.67226C23.7 7.71962 22.8813 7.0405 21.9618 7.0405H20.1066L20.7798 6.04746L12.9018 0L12.0708 1.15342L18.8229 6.30295L17.1792 8.59456H18.918L19.4274 7.97293H21.3438C22.0884 7.97293 22.8 8.52431 22.8 9.29544V14.6084L22.3746 14.9522C22.2399 15.043 22.0641 15.0967 21.8916 15.0967L21.8823 15.0986L16.5312 15.0967C16.0554 15.0967 15.6 15.4961 15.6 15.9891V19.1416C15.6 19.6346 16.1175 20.0946 16.5933 20.0946H21.5886C21.8094 20.0946 22.0419 19.9774 22.1943 19.8357L22.8 19.2855V23.9399C23.4 23.6509 23.7 23.0759 23.7 22.4132V18.5107L23.8833 18.3C23.9886 18.152 24 17.9711 24 17.7734V14.6209C24 14.3039 23.7 14.0269 23.7 13.8687ZM18.1149 18.8815C17.4132 18.8815 16.8447 18.2922 16.8447 17.5655C16.8447 16.8385 17.4135 16.2492 18.1149 16.2492C18.8166 16.2492 19.3854 16.8385 19.3854 17.5655C19.3851 18.2922 18.8163 18.8815 18.1149 18.8815Z" fill="white"/>
<path d="M15 19.7959V15.3345C15 14.8419 15.4287 14.5 15.9042 14.5H21.6V10.9328C21.6 9.97987 20.7282 9.21621 19.8087 9.21621H1.5501C1.2012 9.21621 0.9186 8.95606 0.9186 8.59458C0.9186 8.23311 1.2015 7.97296 1.5501 7.97296H4.2036L4.8819 7.04053H1.6938C0.7743 7.04053 0 7.71965 0 8.67229V24.1979C0 25.1506 0.7743 26 1.6938 26H19.8087C20.7282 26 21.6 25.1506 21.6 24.1979V20.7162H15.9042C15.4287 20.7162 15 20.2889 15 19.7959Z" fill="white"/>
<path d="M16.7947 8.59478L18.4069 6.3414L10.5294 0.311035L4.62305 8.59478H6.32855L10.8192 2.3108L16.4815 6.63978L15.1324 8.59478H16.7947Z" fill="white"/>
<path d="M8.40239 7.23087C8.10719 7.62156 7.98509 7.97277 8.01959 8.5944H12.7254C12.5667 7.97277 12.2289 7.53422 11.7327 7.13141C10.6176 6.22663 9.1266 6.27263 8.40239 7.23087Z" fill="white"/>
</svg>
