<svg width="29" height="31" viewBox="0 0 29 31" fill="none" xmlns="http://www.w3.org/2000/svg">
<path d="M14.2083 0.0113177C8.82323 0.207264 4.05952 2.80356 0.745625 7.73488L0 20.602C7.08344 13.1397 14.1531 12.8785 21.6922 17.3526L24.3709 2.28103C20.8913 0.648144 17.4393 -0.102985 14.2083 0.0113177ZM24.219 7.63691L22.4516 17.5322C22.355 18.0874 21.7612 18.4303 21.3332 18.169C17.6603 15.981 14.1669 15.0012 10.7563 15.4095C8.13284 15.736 5.52315 16.8954 2.89965 19.0508C10.0521 15.981 16.0171 18.0057 21.5817 23.8515L27.4777 10.1189C26.4145 9.17182 25.3236 8.35538 24.219 7.63691ZM26.0693 15.3931L22.2721 24.276C22.0512 24.7659 21.4022 24.8965 21.057 24.521C17.9917 21.2879 14.8435 19.3121 11.4743 18.7242C8.768 18.2507 5.88215 18.6589 2.72015 20.1122C10.5216 19.1488 15.9619 22.9207 20.1181 30.4157L28.8308 18.9528C27.9609 17.6628 27.0358 16.4708 26.0693 15.3931Z" fill="#FFAB48"/>
<path d="M15.9167 8.46162L14.8394 8.46857L14.8352 7.54691L15.9124 7.53996C16.0267 7.53922 16.1361 7.48996 16.2165 7.40302C16.2969 7.31608 16.3418 7.19857 16.3412 7.07635C16.3406 6.95413 16.2947 6.83721 16.2135 6.75131C16.1323 6.66541 16.0225 6.61756 15.9082 6.6183L14.8309 6.62524L14.8203 4.32109C14.8197 4.19887 14.7738 4.08195 14.6926 3.99605C14.6114 3.91015 14.5016 3.8623 14.3873 3.86304C14.273 3.86377 14.1636 3.91303 14.0832 3.99998C14.0028 4.08692 13.9579 4.20443 13.9585 4.32665L13.9691 6.6308L12.1722 6.64238L11.3003 4.44978C11.2202 4.25806 11.0813 4.10141 10.9066 4.00577C10.7318 3.91013 10.5317 3.88124 10.3393 3.92388C10.1469 3.96652 9.97388 4.07814 9.84881 4.24025C9.72375 4.40235 9.65416 4.60522 9.65157 4.81526L9.66007 6.65858L8.58281 6.66553C8.46853 6.66626 8.35915 6.71552 8.27874 6.80247C8.19833 6.88941 8.15347 7.00692 8.15403 7.12914C8.15459 7.25136 8.20053 7.36828 8.28174 7.45418C8.36295 7.54008 8.47278 7.58792 8.58706 7.58719L9.66432 7.58024L9.66857 8.5019L8.59131 8.50885C8.47703 8.50959 8.36765 8.55884 8.28724 8.64579C8.20682 8.73273 8.16197 8.85024 8.16253 8.97246C8.16309 9.09468 8.20903 9.2116 8.29024 9.2975C8.37145 9.3834 8.48128 9.43125 8.59556 9.43051L9.67282 9.42357L9.68344 11.7277C9.684 11.8499 9.72994 11.9669 9.81115 12.0528C9.89236 12.1387 10.0022 12.1865 10.1165 12.1858C10.2308 12.185 10.3401 12.1358 10.4205 12.0488C10.501 11.9619 10.5458 11.8444 10.5452 11.7222L10.5346 9.41801L12.3315 9.40642L13.2034 11.599C13.2692 11.7653 13.3793 11.9073 13.52 12.0071C13.6606 12.107 13.8257 12.1604 13.9946 12.1608C14.0519 12.1672 14.1097 12.1668 14.167 12.1597C14.3644 12.1153 14.541 11.9983 14.6662 11.8291C14.7914 11.6599 14.8572 11.4491 14.8522 11.2336L14.8437 9.39023L15.9209 9.38328C16.0352 9.38255 16.1446 9.33329 16.225 9.24634C16.3054 9.1594 16.3503 9.04189 16.3497 8.91967C16.3491 8.79745 16.3032 8.68053 16.222 8.59463C16.1408 8.50873 16.031 8.46088 15.9167 8.46162ZM13.9734 7.55246L13.9776 8.47412L12.9004 8.48107L12.5385 7.56171L13.9734 7.55246ZM10.5134 4.8097L11.2415 6.64839L10.5219 6.65303L10.5134 4.8097ZM10.5304 8.49635L10.5261 7.57469L11.6034 7.56774L11.9653 8.4871L10.5304 8.49635ZM13.9904 11.2391L13.2623 9.40042L13.9819 9.39578L13.9904 11.2391Z" fill="#1E0448"/>
</svg>
