<svg width="241" height="70" viewBox="0 0 241 70" fill="none" xmlns="http://www.w3.org/2000/svg">
<path d="M83.12 35.67V39H70.415V17.31H74.45V35.67H83.12ZM91.4349 23.37C92.5749 23.37 93.6099 23.555 94.5399 23.925C95.4799 24.295 96.2799 24.82 96.9399 25.5C97.6099 26.18 98.1249 27.01 98.4849 27.99C98.8449 28.97 99.0249 30.065 99.0249 31.275C99.0249 32.495 98.8449 33.595 98.4849 34.575C98.1249 35.555 97.6099 36.39 96.9399 37.08C96.2799 37.77 95.4799 38.3 94.5399 38.67C93.6099 39.04 92.5749 39.225 91.4349 39.225C90.2849 39.225 89.2399 39.04 88.2999 38.67C87.3599 38.3 86.5549 37.77 85.8849 37.08C85.2249 36.39 84.7099 35.555 84.3399 34.575C83.9799 33.595 83.7999 32.495 83.7999 31.275C83.7999 30.065 83.9799 28.97 84.3399 27.99C84.7099 27.01 85.2249 26.18 85.8849 25.5C86.5549 24.82 87.3599 24.295 88.2999 23.925C89.2399 23.555 90.2849 23.37 91.4349 23.37ZM91.4349 36.375C92.7149 36.375 93.6599 35.945 94.2699 35.085C94.8899 34.225 95.1999 32.965 95.1999 31.305C95.1999 29.645 94.8899 28.38 94.2699 27.51C93.6599 26.64 92.7149 26.205 91.4349 26.205C90.1349 26.205 89.1699 26.645 88.5399 27.525C87.9199 28.395 87.6099 29.655 87.6099 31.305C87.6099 32.955 87.9199 34.215 88.5399 35.085C89.1699 35.945 90.1349 36.375 91.4349 36.375ZM109.981 32.43C108.911 32.48 108.011 32.575 107.281 32.715C106.551 32.845 105.966 33.015 105.526 33.225C105.086 33.435 104.771 33.68 104.581 33.96C104.391 34.24 104.296 34.545 104.296 34.875C104.296 35.525 104.486 35.99 104.866 36.27C105.256 36.55 105.761 36.69 106.381 36.69C107.141 36.69 107.796 36.555 108.346 36.285C108.906 36.005 109.451 35.585 109.981 35.025V32.43ZM101.491 25.755C103.261 24.135 105.391 23.325 107.881 23.325C108.781 23.325 109.586 23.475 110.296 23.775C111.006 24.065 111.606 24.475 112.096 25.005C112.586 25.525 112.956 26.15 113.206 26.88C113.466 27.61 113.596 28.41 113.596 29.28V39H111.916C111.566 39 111.296 38.95 111.106 38.85C110.916 38.74 110.766 38.525 110.656 38.205L110.326 37.095C109.936 37.445 109.556 37.755 109.186 38.025C108.816 38.285 108.431 38.505 108.031 38.685C107.631 38.865 107.201 39 106.741 39.09C106.291 39.19 105.791 39.24 105.241 39.24C104.591 39.24 103.991 39.155 103.441 38.985C102.891 38.805 102.416 38.54 102.016 38.19C101.616 37.84 101.306 37.405 101.086 36.885C100.866 36.365 100.756 35.76 100.756 35.07C100.756 34.68 100.821 34.295 100.951 33.915C101.081 33.525 101.291 33.155 101.581 32.805C101.881 32.455 102.266 32.125 102.736 31.815C103.206 31.505 103.781 31.235 104.461 31.005C105.151 30.775 105.951 30.59 106.861 30.45C107.771 30.3 108.811 30.21 109.981 30.18V29.28C109.981 28.25 109.761 27.49 109.321 27C108.881 26.5 108.246 26.25 107.416 26.25C106.816 26.25 106.316 26.32 105.916 26.46C105.526 26.6 105.181 26.76 104.881 26.94C104.581 27.11 104.306 27.265 104.056 27.405C103.816 27.545 103.546 27.615 103.246 27.615C102.986 27.615 102.766 27.55 102.586 27.42C102.406 27.28 102.261 27.12 102.151 26.94L101.491 25.755ZM120.551 25.5C120.861 25.19 121.186 24.905 121.526 24.645C121.876 24.375 122.241 24.15 122.621 23.97C123.011 23.78 123.426 23.635 123.866 23.535C124.306 23.425 124.786 23.37 125.306 23.37C126.146 23.37 126.891 23.515 127.541 23.805C128.191 24.085 128.731 24.485 129.161 25.005C129.601 25.515 129.931 26.13 130.151 26.85C130.381 27.56 130.496 28.345 130.496 29.205V39H126.791V29.205C126.791 28.265 126.576 27.54 126.146 27.03C125.716 26.51 125.061 26.25 124.181 26.25C123.541 26.25 122.941 26.395 122.381 26.685C121.821 26.975 121.291 27.37 120.791 27.87V39H117.086V23.61H119.351C119.831 23.61 120.146 23.835 120.296 24.285L120.551 25.5ZM152.567 17.31V39H150.497C150.177 39 149.907 38.95 149.687 38.85C149.477 38.74 149.272 38.56 149.072 38.31L137.747 23.85C137.807 24.51 137.837 25.12 137.837 25.68V39H134.282V17.31H136.397C136.567 17.31 136.712 17.32 136.832 17.34C136.962 17.35 137.072 17.38 137.162 17.43C137.262 17.47 137.357 17.535 137.447 17.625C137.537 17.705 137.637 17.815 137.747 17.955L149.117 32.475C149.087 32.125 149.062 31.78 149.042 31.44C149.022 31.1 149.012 30.785 149.012 30.495V17.31H152.567ZM163.154 23.37C164.294 23.37 165.329 23.555 166.259 23.925C167.199 24.295 167.999 24.82 168.659 25.5C169.329 26.18 169.844 27.01 170.204 27.99C170.564 28.97 170.744 30.065 170.744 31.275C170.744 32.495 170.564 33.595 170.204 34.575C169.844 35.555 169.329 36.39 168.659 37.08C167.999 37.77 167.199 38.3 166.259 38.67C165.329 39.04 164.294 39.225 163.154 39.225C162.004 39.225 160.959 39.04 160.019 38.67C159.079 38.3 158.274 37.77 157.604 37.08C156.944 36.39 156.429 35.555 156.059 34.575C155.699 33.595 155.519 32.495 155.519 31.275C155.519 30.065 155.699 28.97 156.059 27.99C156.429 27.01 156.944 26.18 157.604 25.5C158.274 24.82 159.079 24.295 160.019 23.925C160.959 23.555 162.004 23.37 163.154 23.37ZM163.154 36.375C164.434 36.375 165.379 35.945 165.989 35.085C166.609 34.225 166.919 32.965 166.919 31.305C166.919 29.645 166.609 28.38 165.989 27.51C165.379 26.64 164.434 26.205 163.154 26.205C161.854 26.205 160.889 26.645 160.259 27.525C159.639 28.395 159.329 29.655 159.329 31.305C159.329 32.955 159.639 34.215 160.259 35.085C160.889 35.945 161.854 36.375 163.154 36.375ZM195.282 23.61L190.392 39H187.422C187.082 39 186.847 38.78 186.717 38.34L183.957 29.445C183.867 29.145 183.782 28.85 183.702 28.56C183.632 28.26 183.572 27.96 183.522 27.66C183.462 27.96 183.392 28.265 183.312 28.575C183.242 28.875 183.162 29.175 183.072 29.475L180.267 38.34C180.147 38.78 179.882 39 179.472 39H176.622L171.747 23.61H174.702C174.972 23.61 175.202 23.675 175.392 23.805C175.582 23.935 175.707 24.1 175.767 24.3L177.972 32.52C178.082 32.97 178.177 33.41 178.257 33.84C178.347 34.27 178.422 34.7 178.482 35.13C178.592 34.7 178.707 34.27 178.827 33.84C178.957 33.41 179.092 32.97 179.232 32.52L181.782 24.27C181.842 24.07 181.957 23.905 182.127 23.775C182.307 23.645 182.522 23.58 182.772 23.58H184.407C184.667 23.58 184.887 23.645 185.067 23.775C185.257 23.905 185.382 24.07 185.442 24.27L187.917 32.52C188.047 32.97 188.167 33.415 188.277 33.855C188.397 34.285 188.512 34.715 188.622 35.145C188.752 34.295 188.937 33.42 189.177 32.52L191.442 24.3C191.512 24.1 191.637 23.935 191.817 23.805C191.997 23.675 192.212 23.61 192.462 23.61H195.282Z" fill="#FFAB48"/>
<path d="M28.5587 0.0281404C17.7347 0.477301 8.15963 6.42868 1.49871 17.7326L0 47.2275C14.2377 30.1219 28.4477 29.523 43.6013 39.7789L48.9855 5.23092C41.9915 1.48791 35.0531 -0.23387 28.5587 0.0281404ZM48.6802 17.508L45.1277 40.1906C44.9335 41.4632 43.74 42.2493 42.8797 41.6504C35.4972 36.6348 28.4754 34.3889 21.6202 35.3247C16.347 36.0733 11.1015 38.7308 5.8283 43.6716C20.2048 36.6347 32.1944 41.2761 43.3792 54.676L55.2301 23.1974C53.0931 21.0264 50.9005 19.1549 48.6802 17.508ZM52.3992 35.2873L44.7669 55.6492C44.3229 56.7721 43.0184 57.0716 42.3246 56.2107C36.1632 48.7995 29.8354 44.2705 23.0634 42.923C17.6237 41.8375 11.8231 42.7733 5.4675 46.1046C21.1484 43.8962 32.0834 52.5425 40.4373 69.7229L57.95 43.447C56.2015 40.49 54.342 37.7576 52.3992 35.2873Z" fill="#FFAB48"/>
<path d="M31.9927 19.3973L29.8274 19.4132L29.8188 17.3005L31.9841 17.2846C32.2138 17.2829 32.4337 17.17 32.5953 16.9707C32.757 16.7714 32.8471 16.5021 32.846 16.2219C32.8449 15.9417 32.7525 15.6737 32.5893 15.4768C32.4261 15.2799 32.2053 15.1702 31.9756 15.1719L29.8103 15.1878L29.789 9.90612C29.7878 9.62596 29.6955 9.35795 29.5323 9.16104C29.369 8.96413 29.1483 8.85446 28.9186 8.85615C28.6889 8.85784 28.469 8.97075 28.3074 9.17005C28.1458 9.36934 28.0556 9.6387 28.0567 9.91886L28.0781 15.2006L24.4664 15.2271L22.7138 10.2011C22.5528 9.76165 22.2736 9.40256 21.9223 9.18333C21.5711 8.9641 21.1688 8.89787 20.7821 8.99562C20.3955 9.09337 20.0477 9.34922 19.7963 9.72081C19.5449 10.0924 19.405 10.5574 19.3998 11.0389L19.4169 15.2643L17.2516 15.2802C17.0219 15.2819 16.802 15.3948 16.6404 15.5941C16.4788 15.7934 16.3886 16.0627 16.3898 16.3429C16.3909 16.6231 16.4832 16.8911 16.6465 17.088C16.8097 17.2849 17.0304 17.3946 17.2601 17.3929L19.4254 17.377L19.434 19.4896L17.2687 19.5056C17.039 19.5073 16.8191 19.6202 16.6575 19.8195C16.4959 20.0188 16.4057 20.2881 16.4068 20.5683C16.408 20.8484 16.5003 21.1165 16.6635 21.3134C16.8268 21.5103 17.0475 21.6199 17.2772 21.6183L19.4425 21.6023L19.4639 26.8841C19.465 27.1642 19.5573 27.4322 19.7206 27.6291C19.8838 27.826 20.1045 27.9357 20.3343 27.934C20.564 27.9323 20.7838 27.8194 20.9454 27.6201C21.1071 27.4208 21.1972 27.1515 21.1961 26.8713L21.1748 21.5896L24.7865 21.563L26.5391 26.5891C26.6713 26.9703 26.8926 27.2956 27.1753 27.5245C27.458 27.7535 27.7898 27.8759 28.1293 27.8767C28.2445 27.8915 28.3607 27.8906 28.4758 27.8742C28.8725 27.7725 29.2276 27.5044 29.4793 27.1165C29.7309 26.7286 29.8632 26.2455 29.853 25.7513L29.8359 21.5259L32.0012 21.51C32.2309 21.5083 32.4508 21.3954 32.6124 21.1961C32.774 20.9968 32.8642 20.7274 32.8631 20.4473C32.8619 20.1671 32.7696 19.8991 32.6064 19.7022C32.4431 19.5053 32.2224 19.3956 31.9927 19.3973ZM28.0866 17.3133L28.0952 19.426L25.9299 19.4419L25.2024 17.3345L28.0866 17.3133ZM21.1321 11.0262L22.5955 15.2409L21.1491 15.2515L21.1321 11.0262ZM21.1662 19.4769L21.1577 17.3642L23.323 17.3483L24.0504 19.4557L21.1662 19.4769ZM28.1208 25.764L26.6573 21.5493L28.1037 21.5386L28.1208 25.764Z" fill="#1E0448"/>
</svg>
