<svg width="29" height="33" viewBox="0 0 29 33" fill="none" xmlns="http://www.w3.org/2000/svg">
<path d="M14.025 33C16.2364 33 18.0303 31.1534 18.0303 28.875H10.0197C10.0197 31.1534 11.8136 33 14.025 33ZM27.5109 23.3507C26.3012 22.0127 24.0378 19.9998 24.0378 13.4062C24.0378 8.39824 20.6267 4.38926 16.0273 3.4057V2.0625C16.0273 0.923613 15.1307 0 14.025 0C12.9193 0 12.0227 0.923613 12.0227 2.0625V3.4057C7.42325 4.38926 4.01218 8.39824 4.01218 13.4062C4.01218 19.9998 1.74878 22.0127 0.539128 23.3507C0.163459 23.7664 -0.00308728 24.2634 4.32888e-05 24.75C0.00693054 25.807 0.812739 26.8125 2.00987 26.8125H26.0401C27.2373 26.8125 28.0437 25.807 28.05 24.75C28.0531 24.2634 27.8865 23.7658 27.5109 23.3507Z" fill="#1E0448"/>
</svg>
