<svg width="54" height="54" viewBox="0 0 54 54" fill="none" xmlns="http://www.w3.org/2000/svg">
<circle cx="26.75" cy="26.75" r="26.75" fill="#FFCF97"/>
<path d="M34.8611 26.0783L35.7255 27.0198C36.0915 27.4184 36.0915 28.0629 35.7255 28.4573L28.16 36.701C27.794 37.0997 27.2021 37.0997 26.84 36.701L19.2745 28.4616C18.9085 28.0629 18.9085 27.4184 19.2745 27.024L20.1389 26.0826C20.5088 25.6797 21.1123 25.6882 21.4745 26.0995L25.9406 31.2052V19.0177C25.9406 18.4537 26.3572 18 26.8751 18H28.1211C28.6389 18 29.0555 18.4537 29.0555 19.0177L29.0555 31.2052L33.5255 26.0953C33.8877 25.6797 34.4912 25.6712 34.8611 26.0783Z" fill="#FF9C27"/>
</svg>
