<svg width="426" height="350" viewBox="0 0 426 350" fill="none" xmlns="http://www.w3.org/2000/svg">
<g opacity="0.15">
<path opacity="0.15" d="M3 122.255H52.4278V146.349H3" stroke="#474747" stroke-width="6" stroke-miterlimit="10" stroke-linecap="round" stroke-linejoin="round"/>
<path opacity="0.15" d="M101.855 146.349H52.4277" stroke="#474747" stroke-width="6" stroke-miterlimit="10" stroke-linecap="round" stroke-linejoin="round"/>
<path opacity="0.15" d="M52.4277 122.255H71.3536" stroke="#474747" stroke-width="6" stroke-miterlimit="10" stroke-linecap="round" stroke-linejoin="round"/>
<path opacity="0.15" d="M77.141 146.349H27.7139V170.444H77.141V146.349Z" stroke="#474747" stroke-width="6" stroke-miterlimit="10" stroke-linecap="round" stroke-linejoin="round"/>
<path opacity="0.15" d="M10.6875 170.559H52.428V194.654H36.4348" stroke="#474747" stroke-width="6" stroke-miterlimit="10" stroke-linecap="round" stroke-linejoin="round"/>
<path opacity="0.15" d="M101.855 170.559H52.4277V194.654H101.855V170.559Z" stroke="#474747" stroke-width="6" stroke-miterlimit="10" stroke-linecap="round" stroke-linejoin="round"/>
<path opacity="0.15" d="M266.482 209.487H315.91V233.582H266.482" stroke="#474747" stroke-width="6" stroke-miterlimit="10" stroke-linecap="round" stroke-linejoin="round"/>
<path opacity="0.15" d="M365.338 233.582H315.91" stroke="#474747" stroke-width="6" stroke-miterlimit="10" stroke-linecap="round" stroke-linejoin="round"/>
<path opacity="0.15" d="M315.91 209.487H334.837" stroke="#474747" stroke-width="6" stroke-miterlimit="10" stroke-linecap="round" stroke-linejoin="round"/>
<path opacity="0.15" d="M340.624 233.582H291.197V257.677H340.624V233.582Z" stroke="#474747" stroke-width="6" stroke-miterlimit="10" stroke-linecap="round" stroke-linejoin="round"/>
<path opacity="0.15" d="M274.17 257.792H315.91V281.887H299.917" stroke="#474747" stroke-width="6" stroke-miterlimit="10" stroke-linecap="round" stroke-linejoin="round"/>
<path opacity="0.15" d="M347.763 281.887H315.91V257.792H357.064" stroke="#474747" stroke-width="6" stroke-miterlimit="10" stroke-linecap="round" stroke-linejoin="round"/>
<path opacity="0.15" d="M182.021 31.957H105.314V94.137H182.021V31.957Z" stroke="#474747" stroke-width="6" stroke-miterlimit="10" stroke-linecap="round" stroke-linejoin="round"/>
<path opacity="0.15" d="M115.895 79.7382L129.949 59.3896L144.484 77.4017" stroke="#474747" stroke-width="6" stroke-miterlimit="10" stroke-linecap="round" stroke-linejoin="round"/>
<path opacity="0.15" d="M139.15 70.7919L158.759 51.7583L172.675 79.7381" stroke="#474747" stroke-width="6" stroke-miterlimit="10" stroke-linecap="round" stroke-linejoin="round"/>
<path opacity="0.15" d="M134.027 64.4483C134.997 61.51 137.765 59.3896 141.028 59.3896C143.716 59.3896 146.068 60.8292 147.356 62.9788L134.027 64.4483ZM381.402 136.128H272.305C268.277 136.128 265.012 132.862 265.012 128.835C265.012 124.807 268.277 121.542 272.305 121.542H381.402C385.43 121.542 388.695 124.807 388.695 128.835C388.694 132.863 385.43 136.128 381.402 136.128Z" stroke="#474747" stroke-width="6" stroke-miterlimit="10" stroke-linecap="round" stroke-linejoin="round"/>
<path opacity="0.15" d="M343.902 121.542H311.957L305.312 80.7795H350.546L343.902 121.542Z" stroke="#474747" stroke-width="6" stroke-miterlimit="10" stroke-linecap="round" stroke-linejoin="round"/>
<path opacity="0.15" d="M356.775 68.9431H299.276V80.7796H356.775V68.9431Z" stroke="#474747" stroke-width="6" stroke-miterlimit="10" stroke-linecap="round" stroke-linejoin="round"/>
<path opacity="0.15" d="M341.328 32.8542L349.5 19.3359C351.072 16.7346 354.609 16.1765 356.906 18.1679C359.203 20.1594 359.152 23.7398 356.799 25.6646L341.491 38.1919M335.328 68.9431C331.396 68.9431 327.464 68.9431 323.531 68.9431C320.322 57.6447 317.501 45.8064 317.848 34.2608C318.261 28.7275 324.239 24.0401 329.43 24.042C334.621 24.0401 340.599 28.7275 341.012 34.2608C341.358 45.807 338.538 57.6447 335.328 68.9431Z" stroke="#474747" stroke-width="6" stroke-miterlimit="10" stroke-linecap="round" stroke-linejoin="round"/>
<path opacity="0.15" d="M349.619 19.1913L345.726 7.11065C345.128 5.25376 346.347 3.30592 348.278 3.03184C350.209 2.75776 351.922 4.28887 351.864 6.2392L351.575 16.0027" stroke="#474747" stroke-width="6" stroke-miterlimit="10" stroke-linecap="round" stroke-linejoin="round"/>
</g>
<path d="M241.278 283.807L323.468 115.21L242.087 75.5377L159.897 244.135L241.278 283.807Z" fill="#77BA85"/>
<path d="M241.278 283.807L323.468 115.21L242.087 75.5377L159.897 244.135L241.278 283.807Z" stroke="#474747" stroke-width="6" stroke-miterlimit="10" stroke-linecap="round" stroke-linejoin="round"/>
<path d="M291.234 111.028L265.22 98.3447C260.28 108.476 248.064 112.684 237.933 107.744L173.784 239.318L236.486 269.888L300.634 138.316C290.504 133.376 286.295 121.159 291.234 111.028Z" fill="#F6F9EA"/>
<path d="M291.234 111.028L265.22 98.3447C260.28 108.476 248.064 112.684 237.933 107.744L173.784 239.318L236.486 269.888L300.634 138.316C290.504 133.376 286.295 121.159 291.234 111.028Z" stroke="#474747" stroke-width="6" stroke-miterlimit="10" stroke-linecap="round" stroke-linejoin="round"/>
<path d="M309.6 119.964L246.896 89.3994L173.818 239.323L236.523 269.887L309.6 119.964Z" stroke="#474747" stroke-width="6" stroke-miterlimit="10" stroke-linecap="round" stroke-linejoin="round"/>
<path d="M247.899 187.875C259.703 187.875 269.273 178.306 269.273 166.501C269.273 154.697 259.703 145.127 247.899 145.127C236.094 145.127 226.525 154.697 226.525 166.501C226.525 178.306 236.094 187.875 247.899 187.875Z" fill="#77BA85"/>
<path d="M247.899 187.875C259.703 187.875 269.273 178.306 269.273 166.501C269.273 154.697 259.703 145.127 247.899 145.127C236.094 145.127 226.525 154.697 226.525 166.501C226.525 178.306 236.094 187.875 247.899 187.875Z" stroke="#474747" stroke-width="6" stroke-miterlimit="10" stroke-linecap="round" stroke-linejoin="round"/>
<path d="M239.598 291.932L384.646 173.013L327.245 103L182.198 221.919L239.598 291.932Z" fill="#97CD78"/>
<path d="M239.598 291.932L384.646 173.013L327.245 103L182.198 221.919L239.598 291.932Z" stroke="#474747" stroke-width="6" stroke-miterlimit="10" stroke-linecap="round" stroke-linejoin="round"/>
<path d="M357.064 155.782L338.714 133.4C329.999 140.546 317.14 139.274 309.994 130.558L196.798 223.365L241.026 277.309L354.222 184.502C347.076 175.786 348.348 162.928 357.064 155.782Z" fill="#F6F9EA"/>
<path d="M357.064 155.782L338.714 133.4C329.999 140.546 317.14 139.274 309.994 130.558L196.798 223.365L241.026 277.309L354.222 184.502C347.076 175.786 348.348 162.928 357.064 155.782Z" stroke="#474747" stroke-width="6" stroke-miterlimit="10" stroke-linecap="round" stroke-linejoin="round"/>
<path d="M370.008 171.559L325.781 117.615L196.803 223.359L241.03 277.304L370.008 171.559Z" stroke="#474747" stroke-width="6" stroke-miterlimit="10" stroke-linecap="round" stroke-linejoin="round"/>
<path d="M294.536 209.487C306.34 209.487 315.91 199.917 315.91 188.113C315.91 176.308 306.34 166.739 294.536 166.739C282.732 166.739 273.162 176.308 273.162 188.113C273.162 199.917 282.732 209.487 294.536 209.487Z" fill="#97CD78"/>
<path d="M294.536 209.487C306.34 209.487 315.91 199.917 315.91 188.113C315.91 176.308 306.34 166.739 294.536 166.739C282.732 166.739 273.162 176.308 273.162 188.113C273.162 199.917 282.732 209.487 294.536 209.487Z" stroke="#474747" stroke-width="6" stroke-miterlimit="10" stroke-linecap="round" stroke-linejoin="round"/>
<path opacity="0.32" d="M296.932 165.733C296.932 154.658 292.774 144.54 285.946 136.84L182.177 221.917L239.579 291.93L296.932 244.907V165.733Z" fill="#474747" stroke="#474747" stroke-width="6" stroke-miterlimit="10" stroke-linecap="round" stroke-linejoin="round"/>
<path opacity="0.15" d="M10.1348 346.999H422.5" stroke="#474747" stroke-width="6" stroke-miterlimit="10" stroke-linecap="round" stroke-linejoin="round"/>
<path d="M253.328 347H122.518C101.876 347 85.1431 330.266 85.1431 309.625V162.619C85.1431 141.977 101.876 125.244 122.518 125.244H253.328C273.97 125.244 290.703 141.977 290.703 162.619V309.625C290.703 330.266 273.97 347 253.328 347Z" fill="#F58870"/>
<path d="M253.328 347H122.518C101.876 347 85.1431 330.266 85.1431 309.625V162.619C85.1431 141.977 101.876 125.244 122.518 125.244H253.328C273.97 125.244 290.703 141.977 290.703 162.619V309.625C290.703 330.266 273.97 347 253.328 347Z" fill="#F58870"/>
<path d="M253.328 339.451H122.518C101.876 339.451 85.1431 322.717 85.1431 302.076V309.626C85.1431 330.267 101.876 347 122.518 347H253.328C273.97 347 290.703 330.267 290.703 309.626V302.076C290.703 322.717 273.97 339.451 253.328 339.451Z" fill="#DD7868"/>
<path d="M253.328 125.244H122.518C101.876 125.244 85.1431 140.619 85.1431 159.584V167.598C85.1431 148.632 101.876 133.257 122.518 133.257H253.328C273.97 133.257 290.703 148.632 290.703 167.598V159.584C290.703 140.619 273.97 125.244 253.328 125.244Z" fill="#FFA399"/>
<path opacity="0.3" d="M209.725 216.485H176.088C169.896 216.485 164.875 211.465 164.875 205.273V136.456C164.875 130.264 169.896 125.244 176.088 125.244H220.937V205.273C220.937 211.465 215.917 216.485 209.725 216.485Z" fill="#474747" stroke="#474747" stroke-width="6" stroke-miterlimit="10" stroke-linecap="round" stroke-linejoin="round"/>
<path d="M253.328 347H122.518C101.876 347 85.1431 330.266 85.1431 309.625V162.619C85.1431 141.977 101.876 125.244 122.518 125.244H253.328C273.97 125.244 290.703 141.977 290.703 162.619V309.625C290.703 330.266 273.97 347 253.328 347Z" stroke="#474747" stroke-width="6" stroke-miterlimit="10" stroke-linecap="round" stroke-linejoin="round"/>
<path opacity="0.46" d="M98.8472 308.674V163.57C98.8472 150.497 109.445 139.899 122.518 139.899H253.328C266.401 139.899 276.999 150.497 276.999 163.57V308.674C276.999 321.747 266.401 332.345 253.328 332.345H122.518C109.445 332.345 98.8472 321.747 98.8472 308.674Z" stroke="#474747" stroke-width="4" stroke-linecap="round" stroke-linejoin="round" stroke-dasharray="13.96 9.97"/>
<path d="M204.742 209.633H171.104C164.912 209.633 159.892 204.613 159.892 198.421V122.426C159.892 116.234 164.912 111.214 171.104 111.214H204.742C210.934 111.214 215.954 116.234 215.954 122.426V198.421C215.954 204.613 210.934 209.633 204.742 209.633Z" fill="#F79765"/>
<path d="M204.742 204.442H171.104C164.912 204.442 159.892 199.422 159.892 193.23V198.421C159.892 204.613 164.912 209.633 171.104 209.633H204.742C210.934 209.633 215.954 204.613 215.954 198.421V193.23C215.954 199.422 210.934 204.442 204.742 204.442Z" fill="#E27444"/>
<path d="M204.742 111.214H171.104C164.912 111.214 159.892 116.234 159.892 122.426V126.662C159.892 120.47 164.912 115.45 171.104 115.45H204.742C210.934 115.45 215.954 120.47 215.954 126.662V122.426C215.954 116.234 210.934 111.214 204.742 111.214Z" fill="#FFB797"/>
<path d="M204.741 209.633H171.104C164.912 209.633 159.892 204.613 159.892 198.421V122.426C159.892 116.234 164.912 111.214 171.104 111.214H204.741C210.934 111.214 215.954 116.234 215.954 122.426V198.421C215.954 204.613 210.934 209.633 204.741 209.633Z" stroke="#474747" stroke-width="6" stroke-miterlimit="10" stroke-linecap="round" stroke-linejoin="round"/>
<path opacity="0.3" d="M189.792 193.625C197.79 193.625 204.274 187.141 204.274 179.143C204.274 171.144 197.79 164.66 189.792 164.66C181.793 164.66 175.309 171.144 175.309 179.143C175.309 187.141 181.793 193.625 189.792 193.625Z" fill="#474747" stroke="#474747" stroke-width="6" stroke-miterlimit="10" stroke-linecap="round" stroke-linejoin="round"/>
<path opacity="0.46" d="M171.105 202.158C169.043 202.158 167.367 200.482 167.367 198.421V122.426C167.367 120.364 169.043 118.688 171.105 118.688H204.742C206.803 118.688 208.479 120.364 208.479 122.426V198.421C208.479 200.482 206.803 202.158 204.742 202.158H171.105Z" stroke="#474747" stroke-width="4" stroke-linecap="round" stroke-linejoin="round" stroke-dasharray="9.84 11.81"/>
<path d="M187.923 189.888C195.922 189.888 202.406 183.404 202.406 175.405C202.406 167.406 195.922 160.922 187.923 160.922C179.925 160.922 173.44 167.406 173.44 175.405C173.44 183.404 179.925 189.888 187.923 189.888Z" fill="#8F6D5D"/>
<path d="M187.923 189.888C195.922 189.888 202.406 183.404 202.406 175.405C202.406 167.406 195.922 160.922 187.923 160.922C179.925 160.922 173.44 167.406 173.44 175.405C173.44 183.404 179.925 189.888 187.923 189.888Z" stroke="#474747" stroke-width="6" stroke-miterlimit="10" stroke-linecap="round" stroke-linejoin="round"/>
<path opacity="0.6" d="M194.03 167.98C194.557 170.335 191.742 171.846 187.596 172.701C183.442 173.522 179.711 173.661 179.2 171.666C178.673 169.705 181.487 166.068 185.634 164.888C189.787 163.674 193.518 165.661 194.03 167.98Z" fill="#FFFCEE"/>
<path d="M395.908 347H352.289C349.789 347 347.762 344.973 347.762 342.473V339.448C347.762 336.948 349.789 334.921 352.289 334.921H395.908C398.408 334.921 400.435 336.948 400.435 339.448V342.473C400.435 344.973 398.408 347 395.908 347Z" fill="#FDB740"/>
<path opacity="0.88" d="M395.908 336.167H352.289C349.789 336.167 347.762 338.194 347.762 340.694V342.459C347.762 339.958 349.789 337.932 352.289 337.932H395.908C398.408 337.932 400.435 339.959 400.435 342.459V340.694C400.435 338.194 398.408 336.167 395.908 336.167Z" fill="#FFF3C0"/>
<path d="M395.908 345.636H352.289C349.789 345.636 347.762 343.609 347.762 341.109V339.345C347.762 341.845 349.789 343.871 352.289 343.871H395.908C398.408 343.871 400.435 341.844 400.435 339.345V341.109C400.435 343.61 398.408 345.636 395.908 345.636Z" fill="#F29E25"/>
<path d="M395.908 347H352.289C349.789 347 347.762 344.973 347.762 342.473V339.448C347.762 336.948 349.789 334.921 352.289 334.921H395.908C398.408 334.921 400.435 336.948 400.435 339.448V342.473C400.435 344.973 398.408 347 395.908 347Z" stroke="#474747" stroke-width="6" stroke-miterlimit="10" stroke-linecap="round" stroke-linejoin="round"/>
<path d="M403.168 334.921H359.549C357.048 334.921 355.022 332.894 355.022 330.395V327.37C355.022 324.869 357.049 322.843 359.549 322.843H403.168C405.668 322.843 407.694 324.87 407.694 327.37V330.395C407.694 332.895 405.668 334.921 403.168 334.921Z" fill="#FDB740"/>
<path opacity="0.88" d="M403.168 324.089H359.549C357.048 324.089 355.022 326.116 355.022 328.616V330.38C355.022 327.88 357.049 325.854 359.549 325.854H403.168C405.668 325.854 407.694 327.881 407.694 330.38V328.616C407.694 326.116 405.668 324.089 403.168 324.089Z" fill="#FFF3C0"/>
<path d="M403.168 333.558H359.549C357.048 333.558 355.022 331.531 355.022 329.031V327.267C355.022 329.767 357.049 331.793 359.549 331.793H403.168C405.668 331.793 407.694 329.766 407.694 327.267V329.031C407.694 331.532 405.668 333.558 403.168 333.558Z" fill="#F29E25"/>
<path d="M403.168 334.921H359.549C357.048 334.921 355.022 332.894 355.022 330.395V327.37C355.022 324.869 357.049 322.843 359.549 322.843H403.168C405.668 322.843 407.694 324.87 407.694 327.37V330.395C407.694 332.895 405.668 334.921 403.168 334.921Z" stroke="#474747" stroke-width="6" stroke-miterlimit="10" stroke-linecap="round" stroke-linejoin="round"/>
<path d="M395.908 322.843H352.289C349.789 322.843 347.762 320.816 347.762 318.316V315.291C347.762 312.791 349.789 310.765 352.289 310.765H395.908C398.408 310.765 400.435 312.792 400.435 315.291V318.316C400.435 320.817 398.408 322.843 395.908 322.843Z" fill="#FDB740"/>
<path opacity="0.88" d="M395.908 312.01H352.289C349.789 312.01 347.762 314.037 347.762 316.537V318.302C347.762 315.801 349.789 313.775 352.289 313.775H395.908C398.408 313.775 400.435 315.802 400.435 318.302V316.537C400.435 314.037 398.408 312.01 395.908 312.01Z" fill="#FFF3C0"/>
<path d="M395.908 321.479H352.289C349.789 321.479 347.762 319.452 347.762 316.953V315.188C347.762 317.688 349.789 319.715 352.289 319.715H395.908C398.408 319.715 400.435 317.688 400.435 315.188V316.953C400.435 319.453 398.408 321.479 395.908 321.479Z" fill="#F29E25"/>
<path d="M395.908 322.843H352.289C349.789 322.843 347.762 320.816 347.762 318.316V315.291C347.762 312.791 349.789 310.765 352.289 310.765H395.908C398.408 310.765 400.435 312.792 400.435 315.291V318.316C400.435 320.817 398.408 322.843 395.908 322.843Z" stroke="#474747" stroke-width="6" stroke-miterlimit="10" stroke-linecap="round" stroke-linejoin="round"/>
<path d="M346.542 313.709L316.745 345.565C315.037 347.391 312.173 347.486 310.347 345.778L308.138 343.712C306.312 342.004 306.216 339.14 307.924 337.314L337.721 305.458C339.429 303.632 342.293 303.537 344.12 305.245L346.329 307.311C348.154 309.019 348.25 311.884 346.542 313.709Z" fill="#FDB740"/>
<path opacity="0.88" d="M338.631 306.31L308.834 338.165C307.126 339.991 307.222 342.856 309.048 344.564L310.337 345.769C308.511 344.061 308.415 341.197 310.123 339.37L339.92 307.515C341.628 305.689 344.493 305.593 346.318 307.301L345.029 306.096C343.204 304.388 340.339 304.484 338.631 306.31Z" fill="#FFF3C0"/>
<path d="M345.546 312.778L315.749 344.633C314.041 346.459 311.177 346.555 309.351 344.847L308.062 343.642C309.888 345.35 312.753 345.254 314.461 343.428L344.257 311.572C345.965 309.747 345.869 306.882 344.044 305.174L345.332 306.379C347.158 308.087 347.254 310.952 345.546 312.778Z" fill="#F29E25"/>
<path d="M346.542 313.709L316.745 345.565C315.037 347.391 312.173 347.486 310.347 345.778L308.138 343.712C306.312 342.004 306.216 339.14 307.924 337.314L337.721 305.458C339.429 303.632 342.293 303.537 344.12 305.245L346.329 307.311C348.154 309.019 348.25 311.884 346.542 313.709Z" stroke="#474747" stroke-width="6" stroke-miterlimit="10" stroke-linecap="round" stroke-linejoin="round"/>
</svg>
